%TF.GenerationSoftware,KiCad,Pcbnew,5.1.6-c6e7f7d~87~ubuntu19.10.1*%
%TF.CreationDate,2021-11-12T23:16:19-08:00*%
%TF.ProjectId,crobagotchi,63726f62-6167-46f7-9463-68692e6b6963,rev?*%
%TF.SameCoordinates,Original*%
%TF.FileFunction,Copper,L2,Bot*%
%TF.FilePolarity,Positive*%
%FSLAX46Y46*%
G04 Gerber Fmt 4.6, Leading zero omitted, Abs format (unit mm)*
G04 Created by KiCad (PCBNEW 5.1.6-c6e7f7d~87~ubuntu19.10.1) date 2021-11-12 23:16:19*
%MOMM*%
%LPD*%
G01*
G04 APERTURE LIST*
%TA.AperFunction,ComponentPad*%
%ADD10C,2.100000*%
%TD*%
%TA.AperFunction,ComponentPad*%
%ADD11R,2.100000X2.100000*%
%TD*%
%TA.AperFunction,ComponentPad*%
%ADD12O,1.600000X2.000000*%
%TD*%
%TA.AperFunction,ComponentPad*%
%ADD13C,2.000000*%
%TD*%
%TA.AperFunction,SMDPad,CuDef*%
%ADD14R,1.000000X1.500000*%
%TD*%
%TA.AperFunction,ComponentPad*%
%ADD15O,1.700000X1.700000*%
%TD*%
%TA.AperFunction,ComponentPad*%
%ADD16R,1.700000X1.700000*%
%TD*%
%TA.AperFunction,ViaPad*%
%ADD17C,0.800000*%
%TD*%
%TA.AperFunction,Conductor*%
%ADD18C,1.000000*%
%TD*%
%TA.AperFunction,Conductor*%
%ADD19C,0.750000*%
%TD*%
%TA.AperFunction,Conductor*%
%ADD20C,1.250000*%
%TD*%
%TA.AperFunction,Conductor*%
%ADD21C,0.254000*%
%TD*%
G04 APERTURE END LIST*
D10*
%TO.P,BT1,2*%
%TO.N,GND*%
X121092000Y-68326000D03*
D11*
%TO.P,BT1,1*%
%TO.N,VCC*%
X101092000Y-68326000D03*
%TD*%
D12*
%TO.P,Brd1,2*%
%TO.N,VCC*%
X110426000Y-51884000D03*
%TO.P,Brd1,1*%
%TO.N,GND*%
X107886000Y-51884000D03*
%TO.P,Brd1,3*%
%TO.N,disp_scl*%
X112966000Y-51884000D03*
%TO.P,Brd1,4*%
%TO.N,disp_sda*%
X115506000Y-51884000D03*
%TD*%
D13*
%TO.P,SW3,1*%
%TO.N,button_select*%
X122070000Y-94488000D03*
%TO.P,SW3,2*%
%TO.N,GND*%
X122070000Y-98988000D03*
%TO.P,SW3,1*%
%TO.N,button_select*%
X115570000Y-94488000D03*
%TO.P,SW3,2*%
%TO.N,GND*%
X115570000Y-98988000D03*
%TD*%
%TO.P,SW2,2*%
%TO.N,GND*%
X101473000Y-98988000D03*
%TO.P,SW2,1*%
%TO.N,button_option*%
X101473000Y-94488000D03*
%TO.P,SW2,2*%
%TO.N,GND*%
X107973000Y-98988000D03*
%TO.P,SW2,1*%
%TO.N,button_option*%
X107973000Y-94488000D03*
%TD*%
D14*
%TO.P,SW1,2*%
%TO.N,GND*%
X100360000Y-76200000D03*
%TO.P,SW1,1*%
%TO.N,rst*%
X99060000Y-76200000D03*
%TD*%
D15*
%TO.P,J1,6*%
%TO.N,GND*%
X102616000Y-86868000D03*
%TO.P,J1,5*%
%TO.N,rst*%
X100076000Y-86868000D03*
%TO.P,J1,4*%
%TO.N,mosi*%
X102616000Y-84328000D03*
%TO.P,J1,3*%
%TO.N,button_select*%
X100076000Y-84328000D03*
%TO.P,J1,2*%
%TO.N,VCC*%
X102616000Y-81788000D03*
D16*
%TO.P,J1,1*%
%TO.N,button_option*%
X100076000Y-81788000D03*
%TD*%
D17*
%TO.N,GND*%
X106045000Y-83820000D03*
X121883500Y-88863500D03*
%TO.N,rst*%
X118110000Y-78105000D03*
X106045000Y-80645000D03*
X106680000Y-77470000D03*
%TO.N,mosi*%
X109220000Y-87630000D03*
X114300000Y-86995000D03*
X114300000Y-86995000D03*
%TO.N,button_select*%
X118110000Y-89535000D03*
X118110000Y-93345000D03*
%TO.N,button_option*%
X116840000Y-89535000D03*
X110490000Y-94615000D03*
%TO.N,disp_scl*%
X111125000Y-76200000D03*
X111125000Y-81280000D03*
%TD*%
D18*
%TO.N,rst*%
X98525999Y-85317999D02*
X100076000Y-86868000D01*
X98525999Y-76734001D02*
X98525999Y-85317999D01*
X99060000Y-76200000D02*
X98525999Y-76734001D01*
X99060000Y-77410002D02*
X99754998Y-78105000D01*
X99060000Y-76200000D02*
X99060000Y-77410002D01*
D19*
X106045000Y-78105000D02*
X106045000Y-80645000D01*
D18*
X99754998Y-78105000D02*
X106045000Y-78105000D01*
X106045000Y-78105000D02*
X106680000Y-77470000D01*
D20*
%TO.N,mosi*%
X113665000Y-87630000D02*
X114300000Y-86995000D01*
X109220000Y-87630000D02*
X113665000Y-87630000D01*
D19*
%TO.N,button_select*%
X118110000Y-89535000D02*
X118110000Y-92710000D01*
X118110000Y-92710000D02*
X118110000Y-93345000D01*
%TO.N,button_option*%
X116840000Y-89535000D02*
X115570000Y-89535000D01*
X115570000Y-89535000D02*
X110490000Y-94615000D01*
D18*
%TO.N,disp_scl*%
X111125000Y-76200000D02*
X111125000Y-81280000D01*
%TD*%
D21*
%TO.N,GND*%
G36*
X126094545Y-48958909D02*
G01*
X126445208Y-49064780D01*
X126768625Y-49236744D01*
X127052484Y-49468254D01*
X127285965Y-49750486D01*
X127460183Y-50072695D01*
X127568502Y-50422614D01*
X127610001Y-50817452D01*
X127610000Y-101567721D01*
X127571091Y-101964545D01*
X127465220Y-102315206D01*
X127293257Y-102638623D01*
X127061748Y-102922482D01*
X126779514Y-103155965D01*
X126457304Y-103330184D01*
X126107385Y-103438502D01*
X125712557Y-103480000D01*
X97822279Y-103480000D01*
X97425455Y-103441091D01*
X97074794Y-103335220D01*
X96751377Y-103163257D01*
X96467518Y-102931748D01*
X96234035Y-102649514D01*
X96059816Y-102327304D01*
X95951498Y-101977385D01*
X95910000Y-101582557D01*
X95910000Y-94326967D01*
X99838000Y-94326967D01*
X99838000Y-94649033D01*
X99900832Y-94964912D01*
X100024082Y-95262463D01*
X100203013Y-95530252D01*
X100430748Y-95757987D01*
X100698537Y-95936918D01*
X100996088Y-96060168D01*
X101311967Y-96123000D01*
X101634033Y-96123000D01*
X101949912Y-96060168D01*
X102247463Y-95936918D01*
X102515252Y-95757987D01*
X102742987Y-95530252D01*
X102921918Y-95262463D01*
X103045168Y-94964912D01*
X103108000Y-94649033D01*
X103108000Y-94326967D01*
X106338000Y-94326967D01*
X106338000Y-94649033D01*
X106400832Y-94964912D01*
X106524082Y-95262463D01*
X106703013Y-95530252D01*
X106930748Y-95757987D01*
X107198537Y-95936918D01*
X107496088Y-96060168D01*
X107811967Y-96123000D01*
X108134033Y-96123000D01*
X108449912Y-96060168D01*
X108747463Y-95936918D01*
X109015252Y-95757987D01*
X109242987Y-95530252D01*
X109421918Y-95262463D01*
X109529915Y-95001736D01*
X109572795Y-95105256D01*
X109686063Y-95274774D01*
X109830226Y-95418937D01*
X109999744Y-95532205D01*
X110188102Y-95610226D01*
X110388061Y-95650000D01*
X110591939Y-95650000D01*
X110791898Y-95610226D01*
X110980256Y-95532205D01*
X111149774Y-95418937D01*
X111293937Y-95274774D01*
X111365132Y-95168223D01*
X112206388Y-94326967D01*
X113935000Y-94326967D01*
X113935000Y-94649033D01*
X113997832Y-94964912D01*
X114121082Y-95262463D01*
X114300013Y-95530252D01*
X114527748Y-95757987D01*
X114795537Y-95936918D01*
X115093088Y-96060168D01*
X115408967Y-96123000D01*
X115731033Y-96123000D01*
X116046912Y-96060168D01*
X116344463Y-95936918D01*
X116612252Y-95757987D01*
X116839987Y-95530252D01*
X117018918Y-95262463D01*
X117142168Y-94964912D01*
X117205000Y-94649033D01*
X117205000Y-94326967D01*
X117142168Y-94011088D01*
X117018918Y-93713537D01*
X116839987Y-93445748D01*
X116612252Y-93218013D01*
X116344463Y-93039082D01*
X116046912Y-92915832D01*
X115731033Y-92853000D01*
X115408967Y-92853000D01*
X115093088Y-92915832D01*
X114795537Y-93039082D01*
X114527748Y-93218013D01*
X114300013Y-93445748D01*
X114121082Y-93713537D01*
X113997832Y-94011088D01*
X113935000Y-94326967D01*
X112206388Y-94326967D01*
X115988356Y-90545000D01*
X116612377Y-90545000D01*
X116738061Y-90570000D01*
X116941939Y-90570000D01*
X117100000Y-90538560D01*
X117100001Y-92660383D01*
X117100000Y-92660393D01*
X117100000Y-93117377D01*
X117075000Y-93243061D01*
X117075000Y-93446939D01*
X117114774Y-93646898D01*
X117192795Y-93835256D01*
X117306063Y-94004774D01*
X117450226Y-94148937D01*
X117619744Y-94262205D01*
X117808102Y-94340226D01*
X118008061Y-94380000D01*
X118211939Y-94380000D01*
X118411898Y-94340226D01*
X118443907Y-94326967D01*
X120435000Y-94326967D01*
X120435000Y-94649033D01*
X120497832Y-94964912D01*
X120621082Y-95262463D01*
X120800013Y-95530252D01*
X121027748Y-95757987D01*
X121295537Y-95936918D01*
X121593088Y-96060168D01*
X121908967Y-96123000D01*
X122231033Y-96123000D01*
X122546912Y-96060168D01*
X122844463Y-95936918D01*
X123112252Y-95757987D01*
X123339987Y-95530252D01*
X123518918Y-95262463D01*
X123642168Y-94964912D01*
X123705000Y-94649033D01*
X123705000Y-94326967D01*
X123642168Y-94011088D01*
X123518918Y-93713537D01*
X123339987Y-93445748D01*
X123112252Y-93218013D01*
X122844463Y-93039082D01*
X122546912Y-92915832D01*
X122231033Y-92853000D01*
X121908967Y-92853000D01*
X121593088Y-92915832D01*
X121295537Y-93039082D01*
X121027748Y-93218013D01*
X120800013Y-93445748D01*
X120621082Y-93713537D01*
X120497832Y-94011088D01*
X120435000Y-94326967D01*
X118443907Y-94326967D01*
X118600256Y-94262205D01*
X118769774Y-94148937D01*
X118913937Y-94004774D01*
X119027205Y-93835256D01*
X119105226Y-93646898D01*
X119145000Y-93446939D01*
X119145000Y-93243061D01*
X119120000Y-93117377D01*
X119120000Y-89762623D01*
X119145000Y-89636939D01*
X119145000Y-89433061D01*
X119105226Y-89233102D01*
X119027205Y-89044744D01*
X118913937Y-88875226D01*
X118769774Y-88731063D01*
X118600256Y-88617795D01*
X118411898Y-88539774D01*
X118211939Y-88500000D01*
X118008061Y-88500000D01*
X117808102Y-88539774D01*
X117619744Y-88617795D01*
X117475000Y-88714510D01*
X117330256Y-88617795D01*
X117141898Y-88539774D01*
X116941939Y-88500000D01*
X116738061Y-88500000D01*
X116612377Y-88525000D01*
X115619608Y-88525000D01*
X115570000Y-88520114D01*
X115520392Y-88525000D01*
X115506352Y-88526383D01*
X115372005Y-88539615D01*
X115289249Y-88564719D01*
X115181620Y-88597368D01*
X115006160Y-88691153D01*
X114852367Y-88817367D01*
X114820744Y-88855900D01*
X109936777Y-93739868D01*
X109830226Y-93811063D01*
X109686063Y-93955226D01*
X109572795Y-94124744D01*
X109569404Y-94132931D01*
X109545168Y-94011088D01*
X109421918Y-93713537D01*
X109242987Y-93445748D01*
X109015252Y-93218013D01*
X108747463Y-93039082D01*
X108449912Y-92915832D01*
X108134033Y-92853000D01*
X107811967Y-92853000D01*
X107496088Y-92915832D01*
X107198537Y-93039082D01*
X106930748Y-93218013D01*
X106703013Y-93445748D01*
X106524082Y-93713537D01*
X106400832Y-94011088D01*
X106338000Y-94326967D01*
X103108000Y-94326967D01*
X103045168Y-94011088D01*
X102921918Y-93713537D01*
X102742987Y-93445748D01*
X102515252Y-93218013D01*
X102247463Y-93039082D01*
X101949912Y-92915832D01*
X101634033Y-92853000D01*
X101311967Y-92853000D01*
X100996088Y-92915832D01*
X100698537Y-93039082D01*
X100430748Y-93218013D01*
X100203013Y-93445748D01*
X100024082Y-93713537D01*
X99900832Y-94011088D01*
X99838000Y-94326967D01*
X95910000Y-94326967D01*
X95910000Y-76734001D01*
X97385508Y-76734001D01*
X97390999Y-76789753D01*
X97391000Y-85262238D01*
X97385508Y-85317999D01*
X97407422Y-85540497D01*
X97472323Y-85754445D01*
X97510185Y-85825280D01*
X97577716Y-85951622D01*
X97719551Y-86124448D01*
X97762859Y-86159990D01*
X98591000Y-86988132D01*
X98591000Y-87014260D01*
X98648068Y-87301158D01*
X98760010Y-87571411D01*
X98922525Y-87814632D01*
X99129368Y-88021475D01*
X99372589Y-88183990D01*
X99642842Y-88295932D01*
X99929740Y-88353000D01*
X100222260Y-88353000D01*
X100509158Y-88295932D01*
X100779411Y-88183990D01*
X101022632Y-88021475D01*
X101229475Y-87814632D01*
X101352842Y-87630000D01*
X107953904Y-87630000D01*
X107978232Y-87877003D01*
X108050280Y-88114514D01*
X108167280Y-88333405D01*
X108324735Y-88525265D01*
X108516595Y-88682720D01*
X108735486Y-88799720D01*
X108972997Y-88871768D01*
X109158107Y-88890000D01*
X113603117Y-88890000D01*
X113665000Y-88896095D01*
X113726883Y-88890000D01*
X113726893Y-88890000D01*
X113912003Y-88871768D01*
X114149514Y-88799720D01*
X114368405Y-88682720D01*
X114560265Y-88525265D01*
X114599724Y-88477184D01*
X115234719Y-87842189D01*
X115352720Y-87698404D01*
X115469720Y-87479514D01*
X115541768Y-87242003D01*
X115566096Y-86995000D01*
X115541768Y-86747997D01*
X115469720Y-86510486D01*
X115352720Y-86291595D01*
X115195265Y-86099735D01*
X115003405Y-85942280D01*
X114784514Y-85825280D01*
X114547003Y-85753232D01*
X114300000Y-85728904D01*
X114052997Y-85753232D01*
X113815486Y-85825280D01*
X113596596Y-85942280D01*
X113452811Y-86060281D01*
X113143092Y-86370000D01*
X109158107Y-86370000D01*
X108972997Y-86388232D01*
X108735486Y-86460280D01*
X108516595Y-86577280D01*
X108324735Y-86734735D01*
X108167280Y-86926595D01*
X108050280Y-87145486D01*
X107978232Y-87382997D01*
X107953904Y-87630000D01*
X101352842Y-87630000D01*
X101391990Y-87571411D01*
X101503932Y-87301158D01*
X101561000Y-87014260D01*
X101561000Y-86721740D01*
X101503932Y-86434842D01*
X101391990Y-86164589D01*
X101229475Y-85921368D01*
X101022632Y-85714525D01*
X100848240Y-85598000D01*
X101022632Y-85481475D01*
X101229475Y-85274632D01*
X101346000Y-85100240D01*
X101462525Y-85274632D01*
X101669368Y-85481475D01*
X101912589Y-85643990D01*
X102182842Y-85755932D01*
X102469740Y-85813000D01*
X102762260Y-85813000D01*
X103049158Y-85755932D01*
X103319411Y-85643990D01*
X103562632Y-85481475D01*
X103769475Y-85274632D01*
X103931990Y-85031411D01*
X104043932Y-84761158D01*
X104101000Y-84474260D01*
X104101000Y-84181740D01*
X104043932Y-83894842D01*
X103931990Y-83624589D01*
X103769475Y-83381368D01*
X103562632Y-83174525D01*
X103388240Y-83058000D01*
X103562632Y-82941475D01*
X103769475Y-82734632D01*
X103931990Y-82491411D01*
X104043932Y-82221158D01*
X104101000Y-81934260D01*
X104101000Y-81641740D01*
X104043932Y-81354842D01*
X103931990Y-81084589D01*
X103769475Y-80841368D01*
X103562632Y-80634525D01*
X103319411Y-80472010D01*
X103049158Y-80360068D01*
X102762260Y-80303000D01*
X102469740Y-80303000D01*
X102182842Y-80360068D01*
X101912589Y-80472010D01*
X101669368Y-80634525D01*
X101537513Y-80766380D01*
X101515502Y-80693820D01*
X101456537Y-80583506D01*
X101377185Y-80486815D01*
X101280494Y-80407463D01*
X101170180Y-80348498D01*
X101050482Y-80312188D01*
X100926000Y-80299928D01*
X99660999Y-80299928D01*
X99660999Y-79236233D01*
X99754998Y-79245491D01*
X99810750Y-79240000D01*
X105035000Y-79240000D01*
X105035001Y-80417372D01*
X105010000Y-80543061D01*
X105010000Y-80746939D01*
X105049774Y-80946898D01*
X105127795Y-81135256D01*
X105241063Y-81304774D01*
X105385226Y-81448937D01*
X105554744Y-81562205D01*
X105743102Y-81640226D01*
X105943061Y-81680000D01*
X106146939Y-81680000D01*
X106346898Y-81640226D01*
X106535256Y-81562205D01*
X106704774Y-81448937D01*
X106848937Y-81304774D01*
X106962205Y-81135256D01*
X107040226Y-80946898D01*
X107080000Y-80746939D01*
X107080000Y-80543061D01*
X107055000Y-80417377D01*
X107055000Y-78700131D01*
X107521989Y-78233143D01*
X107628284Y-78103623D01*
X107733676Y-77906447D01*
X107798577Y-77692499D01*
X107820491Y-77470000D01*
X107798577Y-77247501D01*
X107733676Y-77033553D01*
X107628284Y-76836377D01*
X107486449Y-76663551D01*
X107313623Y-76521716D01*
X107116447Y-76416324D01*
X106902499Y-76351423D01*
X106680000Y-76329509D01*
X106457501Y-76351423D01*
X106243553Y-76416324D01*
X106046377Y-76521716D01*
X105916857Y-76628011D01*
X105574868Y-76970000D01*
X100225130Y-76970000D01*
X100198072Y-76942943D01*
X100198072Y-76224552D01*
X100200490Y-76200001D01*
X100198072Y-76175450D01*
X100198072Y-76144249D01*
X109990000Y-76144249D01*
X109990001Y-81335752D01*
X110006424Y-81502499D01*
X110071325Y-81716447D01*
X110176717Y-81913623D01*
X110318552Y-82086449D01*
X110491378Y-82228284D01*
X110688554Y-82333676D01*
X110902502Y-82398577D01*
X111125000Y-82420491D01*
X111347499Y-82398577D01*
X111561447Y-82333676D01*
X111758623Y-82228284D01*
X111931449Y-82086449D01*
X112073284Y-81913623D01*
X112178676Y-81716447D01*
X112243577Y-81502499D01*
X112260000Y-81335752D01*
X112260000Y-78003061D01*
X117075000Y-78003061D01*
X117075000Y-78206939D01*
X117114774Y-78406898D01*
X117192795Y-78595256D01*
X117306063Y-78764774D01*
X117450226Y-78908937D01*
X117619744Y-79022205D01*
X117808102Y-79100226D01*
X118008061Y-79140000D01*
X118211939Y-79140000D01*
X118411898Y-79100226D01*
X118600256Y-79022205D01*
X118769774Y-78908937D01*
X118913937Y-78764774D01*
X119027205Y-78595256D01*
X119105226Y-78406898D01*
X119145000Y-78206939D01*
X119145000Y-78003061D01*
X119105226Y-77803102D01*
X119027205Y-77614744D01*
X118913937Y-77445226D01*
X118769774Y-77301063D01*
X118600256Y-77187795D01*
X118411898Y-77109774D01*
X118211939Y-77070000D01*
X118008061Y-77070000D01*
X117808102Y-77109774D01*
X117619744Y-77187795D01*
X117450226Y-77301063D01*
X117306063Y-77445226D01*
X117192795Y-77614744D01*
X117114774Y-77803102D01*
X117075000Y-78003061D01*
X112260000Y-78003061D01*
X112260000Y-76144248D01*
X112243577Y-75977501D01*
X112178676Y-75763553D01*
X112073284Y-75566377D01*
X111931449Y-75393551D01*
X111758623Y-75251716D01*
X111561446Y-75146324D01*
X111347498Y-75081423D01*
X111125000Y-75059509D01*
X110902501Y-75081423D01*
X110688553Y-75146324D01*
X110491377Y-75251716D01*
X110318551Y-75393551D01*
X110176716Y-75566377D01*
X110071324Y-75763554D01*
X110006423Y-75977502D01*
X109990000Y-76144249D01*
X100198072Y-76144249D01*
X100198072Y-75450000D01*
X100185812Y-75325518D01*
X100149502Y-75205820D01*
X100090537Y-75095506D01*
X100011185Y-74998815D01*
X99914494Y-74919463D01*
X99804180Y-74860498D01*
X99684482Y-74824188D01*
X99560000Y-74811928D01*
X98560000Y-74811928D01*
X98435518Y-74824188D01*
X98315820Y-74860498D01*
X98205506Y-74919463D01*
X98108815Y-74998815D01*
X98029463Y-75095506D01*
X97970498Y-75205820D01*
X97934188Y-75325518D01*
X97921928Y-75450000D01*
X97921928Y-75732941D01*
X97762864Y-75892005D01*
X97719550Y-75927552D01*
X97577715Y-76100378D01*
X97487313Y-76269511D01*
X97472323Y-76297555D01*
X97407422Y-76511503D01*
X97385508Y-76734001D01*
X95910000Y-76734001D01*
X95910000Y-67276000D01*
X99403928Y-67276000D01*
X99403928Y-69376000D01*
X99416188Y-69500482D01*
X99452498Y-69620180D01*
X99511463Y-69730494D01*
X99590815Y-69827185D01*
X99687506Y-69906537D01*
X99797820Y-69965502D01*
X99917518Y-70001812D01*
X100042000Y-70014072D01*
X102142000Y-70014072D01*
X102266482Y-70001812D01*
X102386180Y-69965502D01*
X102496494Y-69906537D01*
X102593185Y-69827185D01*
X102672537Y-69730494D01*
X102731502Y-69620180D01*
X102767812Y-69500482D01*
X102780072Y-69376000D01*
X102780072Y-67276000D01*
X102767812Y-67151518D01*
X102731502Y-67031820D01*
X102672537Y-66921506D01*
X102593185Y-66824815D01*
X102496494Y-66745463D01*
X102386180Y-66686498D01*
X102266482Y-66650188D01*
X102142000Y-66637928D01*
X100042000Y-66637928D01*
X99917518Y-66650188D01*
X99797820Y-66686498D01*
X99687506Y-66745463D01*
X99590815Y-66824815D01*
X99511463Y-66921506D01*
X99452498Y-67031820D01*
X99416188Y-67151518D01*
X99403928Y-67276000D01*
X95910000Y-67276000D01*
X95910000Y-51613509D01*
X108991000Y-51613509D01*
X108991000Y-52154492D01*
X109011764Y-52365309D01*
X109093818Y-52635808D01*
X109227068Y-52885101D01*
X109406393Y-53103608D01*
X109624900Y-53282932D01*
X109874193Y-53416182D01*
X110144692Y-53498236D01*
X110426000Y-53525943D01*
X110707309Y-53498236D01*
X110977808Y-53416182D01*
X111227101Y-53282932D01*
X111445608Y-53103608D01*
X111624932Y-52885101D01*
X111696000Y-52752142D01*
X111767068Y-52885101D01*
X111946393Y-53103608D01*
X112164900Y-53282932D01*
X112414193Y-53416182D01*
X112684692Y-53498236D01*
X112966000Y-53525943D01*
X113247309Y-53498236D01*
X113517808Y-53416182D01*
X113767101Y-53282932D01*
X113985608Y-53103608D01*
X114164932Y-52885101D01*
X114236000Y-52752142D01*
X114307068Y-52885101D01*
X114486393Y-53103608D01*
X114704900Y-53282932D01*
X114954193Y-53416182D01*
X115224692Y-53498236D01*
X115506000Y-53525943D01*
X115787309Y-53498236D01*
X116057808Y-53416182D01*
X116307101Y-53282932D01*
X116525608Y-53103608D01*
X116704932Y-52885101D01*
X116838182Y-52635807D01*
X116905485Y-52413936D01*
X120869774Y-52413936D01*
X120869774Y-52996064D01*
X120983342Y-53567008D01*
X121206113Y-54104824D01*
X121529526Y-54588847D01*
X121941153Y-55000474D01*
X122425176Y-55323887D01*
X122962992Y-55546658D01*
X123533936Y-55660226D01*
X124116064Y-55660226D01*
X124687008Y-55546658D01*
X125224824Y-55323887D01*
X125708847Y-55000474D01*
X126120474Y-54588847D01*
X126443887Y-54104824D01*
X126666658Y-53567008D01*
X126780226Y-52996064D01*
X126780226Y-52413936D01*
X126666658Y-51842992D01*
X126443887Y-51305176D01*
X126120474Y-50821153D01*
X125708847Y-50409526D01*
X125224824Y-50086113D01*
X124687008Y-49863342D01*
X124116064Y-49749774D01*
X123533936Y-49749774D01*
X122962992Y-49863342D01*
X122425176Y-50086113D01*
X121941153Y-50409526D01*
X121529526Y-50821153D01*
X121206113Y-51305176D01*
X120983342Y-51842992D01*
X120869774Y-52413936D01*
X116905485Y-52413936D01*
X116920236Y-52365308D01*
X116941000Y-52154491D01*
X116941000Y-51613508D01*
X116920236Y-51402691D01*
X116838182Y-51132192D01*
X116704932Y-50882899D01*
X116525607Y-50664392D01*
X116307100Y-50485068D01*
X116057807Y-50351818D01*
X115787308Y-50269764D01*
X115506000Y-50242057D01*
X115224691Y-50269764D01*
X114954192Y-50351818D01*
X114704899Y-50485068D01*
X114486392Y-50664393D01*
X114307068Y-50882900D01*
X114236000Y-51015858D01*
X114164932Y-50882899D01*
X113985607Y-50664392D01*
X113767100Y-50485068D01*
X113517807Y-50351818D01*
X113247308Y-50269764D01*
X112966000Y-50242057D01*
X112684691Y-50269764D01*
X112414192Y-50351818D01*
X112164899Y-50485068D01*
X111946392Y-50664393D01*
X111767068Y-50882900D01*
X111696000Y-51015858D01*
X111624932Y-50882899D01*
X111445607Y-50664392D01*
X111227100Y-50485068D01*
X110977807Y-50351818D01*
X110707308Y-50269764D01*
X110426000Y-50242057D01*
X110144691Y-50269764D01*
X109874192Y-50351818D01*
X109624899Y-50485068D01*
X109406392Y-50664393D01*
X109227068Y-50882900D01*
X109093818Y-51132193D01*
X109011764Y-51402692D01*
X108991000Y-51613509D01*
X95910000Y-51613509D01*
X95910000Y-50832279D01*
X95948909Y-50435455D01*
X96054780Y-50084792D01*
X96226744Y-49761375D01*
X96458254Y-49477516D01*
X96740486Y-49244035D01*
X97062695Y-49069817D01*
X97412614Y-48961498D01*
X97807443Y-48920000D01*
X125697721Y-48920000D01*
X126094545Y-48958909D01*
G37*
X126094545Y-48958909D02*
X126445208Y-49064780D01*
X126768625Y-49236744D01*
X127052484Y-49468254D01*
X127285965Y-49750486D01*
X127460183Y-50072695D01*
X127568502Y-50422614D01*
X127610001Y-50817452D01*
X127610000Y-101567721D01*
X127571091Y-101964545D01*
X127465220Y-102315206D01*
X127293257Y-102638623D01*
X127061748Y-102922482D01*
X126779514Y-103155965D01*
X126457304Y-103330184D01*
X126107385Y-103438502D01*
X125712557Y-103480000D01*
X97822279Y-103480000D01*
X97425455Y-103441091D01*
X97074794Y-103335220D01*
X96751377Y-103163257D01*
X96467518Y-102931748D01*
X96234035Y-102649514D01*
X96059816Y-102327304D01*
X95951498Y-101977385D01*
X95910000Y-101582557D01*
X95910000Y-94326967D01*
X99838000Y-94326967D01*
X99838000Y-94649033D01*
X99900832Y-94964912D01*
X100024082Y-95262463D01*
X100203013Y-95530252D01*
X100430748Y-95757987D01*
X100698537Y-95936918D01*
X100996088Y-96060168D01*
X101311967Y-96123000D01*
X101634033Y-96123000D01*
X101949912Y-96060168D01*
X102247463Y-95936918D01*
X102515252Y-95757987D01*
X102742987Y-95530252D01*
X102921918Y-95262463D01*
X103045168Y-94964912D01*
X103108000Y-94649033D01*
X103108000Y-94326967D01*
X106338000Y-94326967D01*
X106338000Y-94649033D01*
X106400832Y-94964912D01*
X106524082Y-95262463D01*
X106703013Y-95530252D01*
X106930748Y-95757987D01*
X107198537Y-95936918D01*
X107496088Y-96060168D01*
X107811967Y-96123000D01*
X108134033Y-96123000D01*
X108449912Y-96060168D01*
X108747463Y-95936918D01*
X109015252Y-95757987D01*
X109242987Y-95530252D01*
X109421918Y-95262463D01*
X109529915Y-95001736D01*
X109572795Y-95105256D01*
X109686063Y-95274774D01*
X109830226Y-95418937D01*
X109999744Y-95532205D01*
X110188102Y-95610226D01*
X110388061Y-95650000D01*
X110591939Y-95650000D01*
X110791898Y-95610226D01*
X110980256Y-95532205D01*
X111149774Y-95418937D01*
X111293937Y-95274774D01*
X111365132Y-95168223D01*
X112206388Y-94326967D01*
X113935000Y-94326967D01*
X113935000Y-94649033D01*
X113997832Y-94964912D01*
X114121082Y-95262463D01*
X114300013Y-95530252D01*
X114527748Y-95757987D01*
X114795537Y-95936918D01*
X115093088Y-96060168D01*
X115408967Y-96123000D01*
X115731033Y-96123000D01*
X116046912Y-96060168D01*
X116344463Y-95936918D01*
X116612252Y-95757987D01*
X116839987Y-95530252D01*
X117018918Y-95262463D01*
X117142168Y-94964912D01*
X117205000Y-94649033D01*
X117205000Y-94326967D01*
X117142168Y-94011088D01*
X117018918Y-93713537D01*
X116839987Y-93445748D01*
X116612252Y-93218013D01*
X116344463Y-93039082D01*
X116046912Y-92915832D01*
X115731033Y-92853000D01*
X115408967Y-92853000D01*
X115093088Y-92915832D01*
X114795537Y-93039082D01*
X114527748Y-93218013D01*
X114300013Y-93445748D01*
X114121082Y-93713537D01*
X113997832Y-94011088D01*
X113935000Y-94326967D01*
X112206388Y-94326967D01*
X115988356Y-90545000D01*
X116612377Y-90545000D01*
X116738061Y-90570000D01*
X116941939Y-90570000D01*
X117100000Y-90538560D01*
X117100001Y-92660383D01*
X117100000Y-92660393D01*
X117100000Y-93117377D01*
X117075000Y-93243061D01*
X117075000Y-93446939D01*
X117114774Y-93646898D01*
X117192795Y-93835256D01*
X117306063Y-94004774D01*
X117450226Y-94148937D01*
X117619744Y-94262205D01*
X117808102Y-94340226D01*
X118008061Y-94380000D01*
X118211939Y-94380000D01*
X118411898Y-94340226D01*
X118443907Y-94326967D01*
X120435000Y-94326967D01*
X120435000Y-94649033D01*
X120497832Y-94964912D01*
X120621082Y-95262463D01*
X120800013Y-95530252D01*
X121027748Y-95757987D01*
X121295537Y-95936918D01*
X121593088Y-96060168D01*
X121908967Y-96123000D01*
X122231033Y-96123000D01*
X122546912Y-96060168D01*
X122844463Y-95936918D01*
X123112252Y-95757987D01*
X123339987Y-95530252D01*
X123518918Y-95262463D01*
X123642168Y-94964912D01*
X123705000Y-94649033D01*
X123705000Y-94326967D01*
X123642168Y-94011088D01*
X123518918Y-93713537D01*
X123339987Y-93445748D01*
X123112252Y-93218013D01*
X122844463Y-93039082D01*
X122546912Y-92915832D01*
X122231033Y-92853000D01*
X121908967Y-92853000D01*
X121593088Y-92915832D01*
X121295537Y-93039082D01*
X121027748Y-93218013D01*
X120800013Y-93445748D01*
X120621082Y-93713537D01*
X120497832Y-94011088D01*
X120435000Y-94326967D01*
X118443907Y-94326967D01*
X118600256Y-94262205D01*
X118769774Y-94148937D01*
X118913937Y-94004774D01*
X119027205Y-93835256D01*
X119105226Y-93646898D01*
X119145000Y-93446939D01*
X119145000Y-93243061D01*
X119120000Y-93117377D01*
X119120000Y-89762623D01*
X119145000Y-89636939D01*
X119145000Y-89433061D01*
X119105226Y-89233102D01*
X119027205Y-89044744D01*
X118913937Y-88875226D01*
X118769774Y-88731063D01*
X118600256Y-88617795D01*
X118411898Y-88539774D01*
X118211939Y-88500000D01*
X118008061Y-88500000D01*
X117808102Y-88539774D01*
X117619744Y-88617795D01*
X117475000Y-88714510D01*
X117330256Y-88617795D01*
X117141898Y-88539774D01*
X116941939Y-88500000D01*
X116738061Y-88500000D01*
X116612377Y-88525000D01*
X115619608Y-88525000D01*
X115570000Y-88520114D01*
X115520392Y-88525000D01*
X115506352Y-88526383D01*
X115372005Y-88539615D01*
X115289249Y-88564719D01*
X115181620Y-88597368D01*
X115006160Y-88691153D01*
X114852367Y-88817367D01*
X114820744Y-88855900D01*
X109936777Y-93739868D01*
X109830226Y-93811063D01*
X109686063Y-93955226D01*
X109572795Y-94124744D01*
X109569404Y-94132931D01*
X109545168Y-94011088D01*
X109421918Y-93713537D01*
X109242987Y-93445748D01*
X109015252Y-93218013D01*
X108747463Y-93039082D01*
X108449912Y-92915832D01*
X108134033Y-92853000D01*
X107811967Y-92853000D01*
X107496088Y-92915832D01*
X107198537Y-93039082D01*
X106930748Y-93218013D01*
X106703013Y-93445748D01*
X106524082Y-93713537D01*
X106400832Y-94011088D01*
X106338000Y-94326967D01*
X103108000Y-94326967D01*
X103045168Y-94011088D01*
X102921918Y-93713537D01*
X102742987Y-93445748D01*
X102515252Y-93218013D01*
X102247463Y-93039082D01*
X101949912Y-92915832D01*
X101634033Y-92853000D01*
X101311967Y-92853000D01*
X100996088Y-92915832D01*
X100698537Y-93039082D01*
X100430748Y-93218013D01*
X100203013Y-93445748D01*
X100024082Y-93713537D01*
X99900832Y-94011088D01*
X99838000Y-94326967D01*
X95910000Y-94326967D01*
X95910000Y-76734001D01*
X97385508Y-76734001D01*
X97390999Y-76789753D01*
X97391000Y-85262238D01*
X97385508Y-85317999D01*
X97407422Y-85540497D01*
X97472323Y-85754445D01*
X97510185Y-85825280D01*
X97577716Y-85951622D01*
X97719551Y-86124448D01*
X97762859Y-86159990D01*
X98591000Y-86988132D01*
X98591000Y-87014260D01*
X98648068Y-87301158D01*
X98760010Y-87571411D01*
X98922525Y-87814632D01*
X99129368Y-88021475D01*
X99372589Y-88183990D01*
X99642842Y-88295932D01*
X99929740Y-88353000D01*
X100222260Y-88353000D01*
X100509158Y-88295932D01*
X100779411Y-88183990D01*
X101022632Y-88021475D01*
X101229475Y-87814632D01*
X101352842Y-87630000D01*
X107953904Y-87630000D01*
X107978232Y-87877003D01*
X108050280Y-88114514D01*
X108167280Y-88333405D01*
X108324735Y-88525265D01*
X108516595Y-88682720D01*
X108735486Y-88799720D01*
X108972997Y-88871768D01*
X109158107Y-88890000D01*
X113603117Y-88890000D01*
X113665000Y-88896095D01*
X113726883Y-88890000D01*
X113726893Y-88890000D01*
X113912003Y-88871768D01*
X114149514Y-88799720D01*
X114368405Y-88682720D01*
X114560265Y-88525265D01*
X114599724Y-88477184D01*
X115234719Y-87842189D01*
X115352720Y-87698404D01*
X115469720Y-87479514D01*
X115541768Y-87242003D01*
X115566096Y-86995000D01*
X115541768Y-86747997D01*
X115469720Y-86510486D01*
X115352720Y-86291595D01*
X115195265Y-86099735D01*
X115003405Y-85942280D01*
X114784514Y-85825280D01*
X114547003Y-85753232D01*
X114300000Y-85728904D01*
X114052997Y-85753232D01*
X113815486Y-85825280D01*
X113596596Y-85942280D01*
X113452811Y-86060281D01*
X113143092Y-86370000D01*
X109158107Y-86370000D01*
X108972997Y-86388232D01*
X108735486Y-86460280D01*
X108516595Y-86577280D01*
X108324735Y-86734735D01*
X108167280Y-86926595D01*
X108050280Y-87145486D01*
X107978232Y-87382997D01*
X107953904Y-87630000D01*
X101352842Y-87630000D01*
X101391990Y-87571411D01*
X101503932Y-87301158D01*
X101561000Y-87014260D01*
X101561000Y-86721740D01*
X101503932Y-86434842D01*
X101391990Y-86164589D01*
X101229475Y-85921368D01*
X101022632Y-85714525D01*
X100848240Y-85598000D01*
X101022632Y-85481475D01*
X101229475Y-85274632D01*
X101346000Y-85100240D01*
X101462525Y-85274632D01*
X101669368Y-85481475D01*
X101912589Y-85643990D01*
X102182842Y-85755932D01*
X102469740Y-85813000D01*
X102762260Y-85813000D01*
X103049158Y-85755932D01*
X103319411Y-85643990D01*
X103562632Y-85481475D01*
X103769475Y-85274632D01*
X103931990Y-85031411D01*
X104043932Y-84761158D01*
X104101000Y-84474260D01*
X104101000Y-84181740D01*
X104043932Y-83894842D01*
X103931990Y-83624589D01*
X103769475Y-83381368D01*
X103562632Y-83174525D01*
X103388240Y-83058000D01*
X103562632Y-82941475D01*
X103769475Y-82734632D01*
X103931990Y-82491411D01*
X104043932Y-82221158D01*
X104101000Y-81934260D01*
X104101000Y-81641740D01*
X104043932Y-81354842D01*
X103931990Y-81084589D01*
X103769475Y-80841368D01*
X103562632Y-80634525D01*
X103319411Y-80472010D01*
X103049158Y-80360068D01*
X102762260Y-80303000D01*
X102469740Y-80303000D01*
X102182842Y-80360068D01*
X101912589Y-80472010D01*
X101669368Y-80634525D01*
X101537513Y-80766380D01*
X101515502Y-80693820D01*
X101456537Y-80583506D01*
X101377185Y-80486815D01*
X101280494Y-80407463D01*
X101170180Y-80348498D01*
X101050482Y-80312188D01*
X100926000Y-80299928D01*
X99660999Y-80299928D01*
X99660999Y-79236233D01*
X99754998Y-79245491D01*
X99810750Y-79240000D01*
X105035000Y-79240000D01*
X105035001Y-80417372D01*
X105010000Y-80543061D01*
X105010000Y-80746939D01*
X105049774Y-80946898D01*
X105127795Y-81135256D01*
X105241063Y-81304774D01*
X105385226Y-81448937D01*
X105554744Y-81562205D01*
X105743102Y-81640226D01*
X105943061Y-81680000D01*
X106146939Y-81680000D01*
X106346898Y-81640226D01*
X106535256Y-81562205D01*
X106704774Y-81448937D01*
X106848937Y-81304774D01*
X106962205Y-81135256D01*
X107040226Y-80946898D01*
X107080000Y-80746939D01*
X107080000Y-80543061D01*
X107055000Y-80417377D01*
X107055000Y-78700131D01*
X107521989Y-78233143D01*
X107628284Y-78103623D01*
X107733676Y-77906447D01*
X107798577Y-77692499D01*
X107820491Y-77470000D01*
X107798577Y-77247501D01*
X107733676Y-77033553D01*
X107628284Y-76836377D01*
X107486449Y-76663551D01*
X107313623Y-76521716D01*
X107116447Y-76416324D01*
X106902499Y-76351423D01*
X106680000Y-76329509D01*
X106457501Y-76351423D01*
X106243553Y-76416324D01*
X106046377Y-76521716D01*
X105916857Y-76628011D01*
X105574868Y-76970000D01*
X100225130Y-76970000D01*
X100198072Y-76942943D01*
X100198072Y-76224552D01*
X100200490Y-76200001D01*
X100198072Y-76175450D01*
X100198072Y-76144249D01*
X109990000Y-76144249D01*
X109990001Y-81335752D01*
X110006424Y-81502499D01*
X110071325Y-81716447D01*
X110176717Y-81913623D01*
X110318552Y-82086449D01*
X110491378Y-82228284D01*
X110688554Y-82333676D01*
X110902502Y-82398577D01*
X111125000Y-82420491D01*
X111347499Y-82398577D01*
X111561447Y-82333676D01*
X111758623Y-82228284D01*
X111931449Y-82086449D01*
X112073284Y-81913623D01*
X112178676Y-81716447D01*
X112243577Y-81502499D01*
X112260000Y-81335752D01*
X112260000Y-78003061D01*
X117075000Y-78003061D01*
X117075000Y-78206939D01*
X117114774Y-78406898D01*
X117192795Y-78595256D01*
X117306063Y-78764774D01*
X117450226Y-78908937D01*
X117619744Y-79022205D01*
X117808102Y-79100226D01*
X118008061Y-79140000D01*
X118211939Y-79140000D01*
X118411898Y-79100226D01*
X118600256Y-79022205D01*
X118769774Y-78908937D01*
X118913937Y-78764774D01*
X119027205Y-78595256D01*
X119105226Y-78406898D01*
X119145000Y-78206939D01*
X119145000Y-78003061D01*
X119105226Y-77803102D01*
X119027205Y-77614744D01*
X118913937Y-77445226D01*
X118769774Y-77301063D01*
X118600256Y-77187795D01*
X118411898Y-77109774D01*
X118211939Y-77070000D01*
X118008061Y-77070000D01*
X117808102Y-77109774D01*
X117619744Y-77187795D01*
X117450226Y-77301063D01*
X117306063Y-77445226D01*
X117192795Y-77614744D01*
X117114774Y-77803102D01*
X117075000Y-78003061D01*
X112260000Y-78003061D01*
X112260000Y-76144248D01*
X112243577Y-75977501D01*
X112178676Y-75763553D01*
X112073284Y-75566377D01*
X111931449Y-75393551D01*
X111758623Y-75251716D01*
X111561446Y-75146324D01*
X111347498Y-75081423D01*
X111125000Y-75059509D01*
X110902501Y-75081423D01*
X110688553Y-75146324D01*
X110491377Y-75251716D01*
X110318551Y-75393551D01*
X110176716Y-75566377D01*
X110071324Y-75763554D01*
X110006423Y-75977502D01*
X109990000Y-76144249D01*
X100198072Y-76144249D01*
X100198072Y-75450000D01*
X100185812Y-75325518D01*
X100149502Y-75205820D01*
X100090537Y-75095506D01*
X100011185Y-74998815D01*
X99914494Y-74919463D01*
X99804180Y-74860498D01*
X99684482Y-74824188D01*
X99560000Y-74811928D01*
X98560000Y-74811928D01*
X98435518Y-74824188D01*
X98315820Y-74860498D01*
X98205506Y-74919463D01*
X98108815Y-74998815D01*
X98029463Y-75095506D01*
X97970498Y-75205820D01*
X97934188Y-75325518D01*
X97921928Y-75450000D01*
X97921928Y-75732941D01*
X97762864Y-75892005D01*
X97719550Y-75927552D01*
X97577715Y-76100378D01*
X97487313Y-76269511D01*
X97472323Y-76297555D01*
X97407422Y-76511503D01*
X97385508Y-76734001D01*
X95910000Y-76734001D01*
X95910000Y-67276000D01*
X99403928Y-67276000D01*
X99403928Y-69376000D01*
X99416188Y-69500482D01*
X99452498Y-69620180D01*
X99511463Y-69730494D01*
X99590815Y-69827185D01*
X99687506Y-69906537D01*
X99797820Y-69965502D01*
X99917518Y-70001812D01*
X100042000Y-70014072D01*
X102142000Y-70014072D01*
X102266482Y-70001812D01*
X102386180Y-69965502D01*
X102496494Y-69906537D01*
X102593185Y-69827185D01*
X102672537Y-69730494D01*
X102731502Y-69620180D01*
X102767812Y-69500482D01*
X102780072Y-69376000D01*
X102780072Y-67276000D01*
X102767812Y-67151518D01*
X102731502Y-67031820D01*
X102672537Y-66921506D01*
X102593185Y-66824815D01*
X102496494Y-66745463D01*
X102386180Y-66686498D01*
X102266482Y-66650188D01*
X102142000Y-66637928D01*
X100042000Y-66637928D01*
X99917518Y-66650188D01*
X99797820Y-66686498D01*
X99687506Y-66745463D01*
X99590815Y-66824815D01*
X99511463Y-66921506D01*
X99452498Y-67031820D01*
X99416188Y-67151518D01*
X99403928Y-67276000D01*
X95910000Y-67276000D01*
X95910000Y-51613509D01*
X108991000Y-51613509D01*
X108991000Y-52154492D01*
X109011764Y-52365309D01*
X109093818Y-52635808D01*
X109227068Y-52885101D01*
X109406393Y-53103608D01*
X109624900Y-53282932D01*
X109874193Y-53416182D01*
X110144692Y-53498236D01*
X110426000Y-53525943D01*
X110707309Y-53498236D01*
X110977808Y-53416182D01*
X111227101Y-53282932D01*
X111445608Y-53103608D01*
X111624932Y-52885101D01*
X111696000Y-52752142D01*
X111767068Y-52885101D01*
X111946393Y-53103608D01*
X112164900Y-53282932D01*
X112414193Y-53416182D01*
X112684692Y-53498236D01*
X112966000Y-53525943D01*
X113247309Y-53498236D01*
X113517808Y-53416182D01*
X113767101Y-53282932D01*
X113985608Y-53103608D01*
X114164932Y-52885101D01*
X114236000Y-52752142D01*
X114307068Y-52885101D01*
X114486393Y-53103608D01*
X114704900Y-53282932D01*
X114954193Y-53416182D01*
X115224692Y-53498236D01*
X115506000Y-53525943D01*
X115787309Y-53498236D01*
X116057808Y-53416182D01*
X116307101Y-53282932D01*
X116525608Y-53103608D01*
X116704932Y-52885101D01*
X116838182Y-52635807D01*
X116905485Y-52413936D01*
X120869774Y-52413936D01*
X120869774Y-52996064D01*
X120983342Y-53567008D01*
X121206113Y-54104824D01*
X121529526Y-54588847D01*
X121941153Y-55000474D01*
X122425176Y-55323887D01*
X122962992Y-55546658D01*
X123533936Y-55660226D01*
X124116064Y-55660226D01*
X124687008Y-55546658D01*
X125224824Y-55323887D01*
X125708847Y-55000474D01*
X126120474Y-54588847D01*
X126443887Y-54104824D01*
X126666658Y-53567008D01*
X126780226Y-52996064D01*
X126780226Y-52413936D01*
X126666658Y-51842992D01*
X126443887Y-51305176D01*
X126120474Y-50821153D01*
X125708847Y-50409526D01*
X125224824Y-50086113D01*
X124687008Y-49863342D01*
X124116064Y-49749774D01*
X123533936Y-49749774D01*
X122962992Y-49863342D01*
X122425176Y-50086113D01*
X121941153Y-50409526D01*
X121529526Y-50821153D01*
X121206113Y-51305176D01*
X120983342Y-51842992D01*
X120869774Y-52413936D01*
X116905485Y-52413936D01*
X116920236Y-52365308D01*
X116941000Y-52154491D01*
X116941000Y-51613508D01*
X116920236Y-51402691D01*
X116838182Y-51132192D01*
X116704932Y-50882899D01*
X116525607Y-50664392D01*
X116307100Y-50485068D01*
X116057807Y-50351818D01*
X115787308Y-50269764D01*
X115506000Y-50242057D01*
X115224691Y-50269764D01*
X114954192Y-50351818D01*
X114704899Y-50485068D01*
X114486392Y-50664393D01*
X114307068Y-50882900D01*
X114236000Y-51015858D01*
X114164932Y-50882899D01*
X113985607Y-50664392D01*
X113767100Y-50485068D01*
X113517807Y-50351818D01*
X113247308Y-50269764D01*
X112966000Y-50242057D01*
X112684691Y-50269764D01*
X112414192Y-50351818D01*
X112164899Y-50485068D01*
X111946392Y-50664393D01*
X111767068Y-50882900D01*
X111696000Y-51015858D01*
X111624932Y-50882899D01*
X111445607Y-50664392D01*
X111227100Y-50485068D01*
X110977807Y-50351818D01*
X110707308Y-50269764D01*
X110426000Y-50242057D01*
X110144691Y-50269764D01*
X109874192Y-50351818D01*
X109624899Y-50485068D01*
X109406392Y-50664393D01*
X109227068Y-50882900D01*
X109093818Y-51132193D01*
X109011764Y-51402692D01*
X108991000Y-51613509D01*
X95910000Y-51613509D01*
X95910000Y-50832279D01*
X95948909Y-50435455D01*
X96054780Y-50084792D01*
X96226744Y-49761375D01*
X96458254Y-49477516D01*
X96740486Y-49244035D01*
X97062695Y-49069817D01*
X97412614Y-48961498D01*
X97807443Y-48920000D01*
X125697721Y-48920000D01*
X126094545Y-48958909D01*
%TD*%
M02*
