M48
; DRILL file {KiCad 5.1.6-c6e7f7d~87~ubuntu19.10.1} date Fri Nov 12 23:16:23 2021
; FORMAT={-:-/ absolute / inch / decimal}
; #@! TF.CreationDate,2021-11-12T23:16:23-08:00
; #@! TF.GenerationSoftware,Kicad,Pcbnew,5.1.6-c6e7f7d~87~ubuntu19.10.1
FMAT,2
INCH
T1C0.0157
T2C0.0394
T3C0.0433
T4C0.0512
%
G90
G05
T1
X4.175Y-3.175
X4.175Y-3.3
X4.2Y-3.05
X4.3Y-3.45
X4.35Y-3.725
X4.375Y-3.0
X4.375Y-3.2
X4.5Y-3.425
X4.5Y-3.425
X4.6Y-3.525
X4.65Y-3.075
X4.65Y-3.525
X4.65Y-3.675
X4.7986Y-3.4986
T2
X4.2475Y-2.0427
X4.3475Y-2.0427
X4.4475Y-2.0427
X4.5475Y-2.0427
X3.94Y-3.22
X3.94Y-3.32
X3.94Y-3.42
X4.04Y-3.22
X4.04Y-3.32
X4.04Y-3.42
T3
X3.995Y-3.72
X3.995Y-3.8972
X4.2509Y-3.72
X4.2509Y-3.8972
X4.55Y-3.72
X4.55Y-3.8972
X4.8059Y-3.72
X4.8059Y-3.8972
T4
X3.98Y-2.69
X4.7674Y-2.69
T0
M30
