%TF.GenerationSoftware,KiCad,Pcbnew,5.1.6-c6e7f7d~87~ubuntu19.10.1*%
%TF.CreationDate,2021-11-12T23:14:50-08:00*%
%TF.ProjectId,crobagotchi,63726f62-6167-46f7-9463-68692e6b6963,rev?*%
%TF.SameCoordinates,Original*%
%TF.FileFunction,Legend,Bot*%
%TF.FilePolarity,Positive*%
%FSLAX46Y46*%
G04 Gerber Fmt 4.6, Leading zero omitted, Abs format (unit mm)*
G04 Created by KiCad (PCBNEW 5.1.6-c6e7f7d~87~ubuntu19.10.1) date 2021-11-12 23:14:50*
%MOMM*%
%LPD*%
G01*
G04 APERTURE LIST*
%ADD10C,0.150000*%
%ADD11C,0.058970*%
%ADD12C,0.058819*%
%ADD13C,0.085549*%
%ADD14C,0.120000*%
G04 APERTURE END LIST*
D10*
X116379047Y-68032380D02*
X116379047Y-68746666D01*
X116426666Y-68889523D01*
X116521904Y-68984761D01*
X116664761Y-69032380D01*
X116760000Y-69032380D01*
X115426666Y-69032380D02*
X115902857Y-69032380D01*
X115902857Y-68032380D01*
X114521904Y-68937142D02*
X114569523Y-68984761D01*
X114712380Y-69032380D01*
X114807619Y-69032380D01*
X114950476Y-68984761D01*
X115045714Y-68889523D01*
X115093333Y-68794285D01*
X115140952Y-68603809D01*
X115140952Y-68460952D01*
X115093333Y-68270476D01*
X115045714Y-68175238D01*
X114950476Y-68080000D01*
X114807619Y-68032380D01*
X114712380Y-68032380D01*
X114569523Y-68080000D01*
X114521904Y-68127619D01*
X113807619Y-68032380D02*
X113807619Y-68746666D01*
X113855238Y-68889523D01*
X113950476Y-68984761D01*
X114093333Y-69032380D01*
X114188571Y-69032380D01*
X112855238Y-69032380D02*
X113331428Y-69032380D01*
X113331428Y-68032380D01*
X111950476Y-68937142D02*
X111998095Y-68984761D01*
X112140952Y-69032380D01*
X112236190Y-69032380D01*
X112379047Y-68984761D01*
X112474285Y-68889523D01*
X112521904Y-68794285D01*
X112569523Y-68603809D01*
X112569523Y-68460952D01*
X112521904Y-68270476D01*
X112474285Y-68175238D01*
X112379047Y-68080000D01*
X112236190Y-68032380D01*
X112140952Y-68032380D01*
X111998095Y-68080000D01*
X111950476Y-68127619D01*
X111236190Y-68032380D02*
X111236190Y-68746666D01*
X111283809Y-68889523D01*
X111379047Y-68984761D01*
X111521904Y-69032380D01*
X111617142Y-69032380D01*
X110283809Y-69032380D02*
X110760000Y-69032380D01*
X110760000Y-68032380D01*
X109379047Y-68937142D02*
X109426666Y-68984761D01*
X109569523Y-69032380D01*
X109664761Y-69032380D01*
X109807619Y-68984761D01*
X109902857Y-68889523D01*
X109950476Y-68794285D01*
X109998095Y-68603809D01*
X109998095Y-68460952D01*
X109950476Y-68270476D01*
X109902857Y-68175238D01*
X109807619Y-68080000D01*
X109664761Y-68032380D01*
X109569523Y-68032380D01*
X109426666Y-68080000D01*
X109379047Y-68127619D01*
X108664761Y-68032380D02*
X108664761Y-68746666D01*
X108712380Y-68889523D01*
X108807619Y-68984761D01*
X108950476Y-69032380D01*
X109045714Y-69032380D01*
X107712380Y-69032380D02*
X108188571Y-69032380D01*
X108188571Y-68032380D01*
X106807619Y-68937142D02*
X106855238Y-68984761D01*
X106998095Y-69032380D01*
X107093333Y-69032380D01*
X107236190Y-68984761D01*
X107331428Y-68889523D01*
X107379047Y-68794285D01*
X107426666Y-68603809D01*
X107426666Y-68460952D01*
X107379047Y-68270476D01*
X107331428Y-68175238D01*
X107236190Y-68080000D01*
X107093333Y-68032380D01*
X106998095Y-68032380D01*
X106855238Y-68080000D01*
X106807619Y-68127619D01*
X122919238Y-91797142D02*
X122966857Y-91844761D01*
X123109714Y-91892380D01*
X123204952Y-91892380D01*
X123347809Y-91844761D01*
X123443047Y-91749523D01*
X123490666Y-91654285D01*
X123538285Y-91463809D01*
X123538285Y-91320952D01*
X123490666Y-91130476D01*
X123443047Y-91035238D01*
X123347809Y-90940000D01*
X123204952Y-90892380D01*
X123109714Y-90892380D01*
X122966857Y-90940000D01*
X122919238Y-90987619D01*
X122490666Y-91892380D02*
X122490666Y-90892380D01*
X122062095Y-91892380D02*
X122062095Y-91368571D01*
X122109714Y-91273333D01*
X122204952Y-91225714D01*
X122347809Y-91225714D01*
X122443047Y-91273333D01*
X122490666Y-91320952D01*
X121585904Y-91892380D02*
X121585904Y-91225714D01*
X121585904Y-91416190D02*
X121538285Y-91320952D01*
X121490666Y-91273333D01*
X121395428Y-91225714D01*
X121300190Y-91225714D01*
X120966857Y-91892380D02*
X120966857Y-91225714D01*
X120966857Y-90892380D02*
X121014476Y-90940000D01*
X120966857Y-90987619D01*
X120919238Y-90940000D01*
X120966857Y-90892380D01*
X120966857Y-90987619D01*
X120538285Y-91844761D02*
X120443047Y-91892380D01*
X120252571Y-91892380D01*
X120157333Y-91844761D01*
X120109714Y-91749523D01*
X120109714Y-91701904D01*
X120157333Y-91606666D01*
X120252571Y-91559047D01*
X120395428Y-91559047D01*
X120490666Y-91511428D01*
X120538285Y-91416190D01*
X120538285Y-91368571D01*
X120490666Y-91273333D01*
X120395428Y-91225714D01*
X120252571Y-91225714D01*
X120157333Y-91273333D01*
X118633523Y-90892380D02*
X118633523Y-91606666D01*
X118681142Y-91749523D01*
X118776380Y-91844761D01*
X118919238Y-91892380D01*
X119014476Y-91892380D01*
X118014476Y-91892380D02*
X118109714Y-91844761D01*
X118157333Y-91797142D01*
X118204952Y-91701904D01*
X118204952Y-91416190D01*
X118157333Y-91320952D01*
X118109714Y-91273333D01*
X118014476Y-91225714D01*
X117871619Y-91225714D01*
X117776380Y-91273333D01*
X117728761Y-91320952D01*
X117681142Y-91416190D01*
X117681142Y-91701904D01*
X117728761Y-91797142D01*
X117776380Y-91844761D01*
X117871619Y-91892380D01*
X118014476Y-91892380D01*
X117252571Y-91892380D02*
X117252571Y-90892380D01*
X116824000Y-91892380D02*
X116824000Y-91368571D01*
X116871619Y-91273333D01*
X116966857Y-91225714D01*
X117109714Y-91225714D01*
X117204952Y-91273333D01*
X117252571Y-91320952D01*
X116347809Y-91225714D02*
X116347809Y-91892380D01*
X116347809Y-91320952D02*
X116300190Y-91273333D01*
X116204952Y-91225714D01*
X116062095Y-91225714D01*
X115966857Y-91273333D01*
X115919238Y-91368571D01*
X115919238Y-91892380D01*
X115490666Y-91844761D02*
X115395428Y-91892380D01*
X115204952Y-91892380D01*
X115109714Y-91844761D01*
X115062095Y-91749523D01*
X115062095Y-91701904D01*
X115109714Y-91606666D01*
X115204952Y-91559047D01*
X115347809Y-91559047D01*
X115443047Y-91511428D01*
X115490666Y-91416190D01*
X115490666Y-91368571D01*
X115443047Y-91273333D01*
X115347809Y-91225714D01*
X115204952Y-91225714D01*
X115109714Y-91273333D01*
X114776380Y-91225714D02*
X114395428Y-91225714D01*
X114633523Y-90892380D02*
X114633523Y-91749523D01*
X114585904Y-91844761D01*
X114490666Y-91892380D01*
X114395428Y-91892380D01*
X113919238Y-91892380D02*
X114014476Y-91844761D01*
X114062095Y-91797142D01*
X114109714Y-91701904D01*
X114109714Y-91416190D01*
X114062095Y-91320952D01*
X114014476Y-91273333D01*
X113919238Y-91225714D01*
X113776380Y-91225714D01*
X113681142Y-91273333D01*
X113633523Y-91320952D01*
X113585904Y-91416190D01*
X113585904Y-91701904D01*
X113633523Y-91797142D01*
X113681142Y-91844761D01*
X113776380Y-91892380D01*
X113919238Y-91892380D01*
X113157333Y-91225714D02*
X113157333Y-91892380D01*
X113157333Y-91320952D02*
X113109714Y-91273333D01*
X113014476Y-91225714D01*
X112871619Y-91225714D01*
X112776380Y-91273333D01*
X112728761Y-91368571D01*
X112728761Y-91892380D01*
X111538285Y-90987619D02*
X111490666Y-90940000D01*
X111395428Y-90892380D01*
X111157333Y-90892380D01*
X111062095Y-90940000D01*
X111014476Y-90987619D01*
X110966857Y-91082857D01*
X110966857Y-91178095D01*
X111014476Y-91320952D01*
X111585904Y-91892380D01*
X110966857Y-91892380D01*
X110347809Y-90892380D02*
X110252571Y-90892380D01*
X110157333Y-90940000D01*
X110109714Y-90987619D01*
X110062095Y-91082857D01*
X110014476Y-91273333D01*
X110014476Y-91511428D01*
X110062095Y-91701904D01*
X110109714Y-91797142D01*
X110157333Y-91844761D01*
X110252571Y-91892380D01*
X110347809Y-91892380D01*
X110443047Y-91844761D01*
X110490666Y-91797142D01*
X110538285Y-91701904D01*
X110585904Y-91511428D01*
X110585904Y-91273333D01*
X110538285Y-91082857D01*
X110490666Y-90987619D01*
X110443047Y-90940000D01*
X110347809Y-90892380D01*
X109633523Y-90987619D02*
X109585904Y-90940000D01*
X109490666Y-90892380D01*
X109252571Y-90892380D01*
X109157333Y-90940000D01*
X109109714Y-90987619D01*
X109062095Y-91082857D01*
X109062095Y-91178095D01*
X109109714Y-91320952D01*
X109681142Y-91892380D01*
X109062095Y-91892380D01*
X108109714Y-91892380D02*
X108681142Y-91892380D01*
X108395428Y-91892380D02*
X108395428Y-90892380D01*
X108490666Y-91035238D01*
X108585904Y-91130476D01*
X108681142Y-91178095D01*
X100933095Y-74747380D02*
X101266428Y-74271190D01*
X101504523Y-74747380D02*
X101504523Y-73747380D01*
X101123571Y-73747380D01*
X101028333Y-73795000D01*
X100980714Y-73842619D01*
X100933095Y-73937857D01*
X100933095Y-74080714D01*
X100980714Y-74175952D01*
X101028333Y-74223571D01*
X101123571Y-74271190D01*
X101504523Y-74271190D01*
X100123571Y-74699761D02*
X100218809Y-74747380D01*
X100409285Y-74747380D01*
X100504523Y-74699761D01*
X100552142Y-74604523D01*
X100552142Y-74223571D01*
X100504523Y-74128333D01*
X100409285Y-74080714D01*
X100218809Y-74080714D01*
X100123571Y-74128333D01*
X100075952Y-74223571D01*
X100075952Y-74318809D01*
X100552142Y-74414047D01*
X99695000Y-74699761D02*
X99599761Y-74747380D01*
X99409285Y-74747380D01*
X99314047Y-74699761D01*
X99266428Y-74604523D01*
X99266428Y-74556904D01*
X99314047Y-74461666D01*
X99409285Y-74414047D01*
X99552142Y-74414047D01*
X99647380Y-74366428D01*
X99695000Y-74271190D01*
X99695000Y-74223571D01*
X99647380Y-74128333D01*
X99552142Y-74080714D01*
X99409285Y-74080714D01*
X99314047Y-74128333D01*
X98456904Y-74699761D02*
X98552142Y-74747380D01*
X98742619Y-74747380D01*
X98837857Y-74699761D01*
X98885476Y-74604523D01*
X98885476Y-74223571D01*
X98837857Y-74128333D01*
X98742619Y-74080714D01*
X98552142Y-74080714D01*
X98456904Y-74128333D01*
X98409285Y-74223571D01*
X98409285Y-74318809D01*
X98885476Y-74414047D01*
X98123571Y-74080714D02*
X97742619Y-74080714D01*
X97980714Y-73747380D02*
X97980714Y-74604523D01*
X97933095Y-74699761D01*
X97837857Y-74747380D01*
X97742619Y-74747380D01*
X104885714Y-79700380D02*
X104885714Y-78700380D01*
X104885714Y-79176571D02*
X104314285Y-79176571D01*
X104314285Y-79700380D02*
X104314285Y-78700380D01*
X103409523Y-79700380D02*
X103409523Y-79176571D01*
X103457142Y-79081333D01*
X103552380Y-79033714D01*
X103742857Y-79033714D01*
X103838095Y-79081333D01*
X103409523Y-79652761D02*
X103504761Y-79700380D01*
X103742857Y-79700380D01*
X103838095Y-79652761D01*
X103885714Y-79557523D01*
X103885714Y-79462285D01*
X103838095Y-79367047D01*
X103742857Y-79319428D01*
X103504761Y-79319428D01*
X103409523Y-79271809D01*
X102504761Y-79652761D02*
X102600000Y-79700380D01*
X102790476Y-79700380D01*
X102885714Y-79652761D01*
X102933333Y-79605142D01*
X102980952Y-79509904D01*
X102980952Y-79224190D01*
X102933333Y-79128952D01*
X102885714Y-79081333D01*
X102790476Y-79033714D01*
X102600000Y-79033714D01*
X102504761Y-79081333D01*
X102076190Y-79700380D02*
X102076190Y-78700380D01*
X101980952Y-79319428D02*
X101695238Y-79700380D01*
X101695238Y-79033714D02*
X102076190Y-79414666D01*
X100504761Y-79700380D02*
X100504761Y-79033714D01*
X100504761Y-79128952D02*
X100457142Y-79081333D01*
X100361904Y-79033714D01*
X100219047Y-79033714D01*
X100123809Y-79081333D01*
X100076190Y-79176571D01*
X100076190Y-79700380D01*
X100076190Y-79176571D02*
X100028571Y-79081333D01*
X99933333Y-79033714D01*
X99790476Y-79033714D01*
X99695238Y-79081333D01*
X99647619Y-79176571D01*
X99647619Y-79700380D01*
X98790476Y-79652761D02*
X98885714Y-79700380D01*
X99076190Y-79700380D01*
X99171428Y-79652761D01*
X99219047Y-79557523D01*
X99219047Y-79176571D01*
X99171428Y-79081333D01*
X99076190Y-79033714D01*
X98885714Y-79033714D01*
X98790476Y-79081333D01*
X98742857Y-79176571D01*
X98742857Y-79271809D01*
X99219047Y-79367047D01*
X98314285Y-79605142D02*
X98266666Y-79652761D01*
X98314285Y-79700380D01*
X98361904Y-79652761D01*
X98314285Y-79605142D01*
X98314285Y-79700380D01*
X98314285Y-79319428D02*
X98361904Y-78748000D01*
X98314285Y-78700380D01*
X98266666Y-78748000D01*
X98314285Y-79319428D01*
X98314285Y-78700380D01*
D11*
%TO.C,svg2mod*%
X107458529Y-53937060D02*
X107457646Y-53936400D01*
X107457646Y-53936400D02*
X107455034Y-53934447D01*
X107455034Y-53934447D02*
X107450746Y-53931239D01*
X107450746Y-53931239D02*
X107444833Y-53926814D01*
X107444833Y-53926814D02*
X107437350Y-53921211D01*
X107437350Y-53921211D02*
X107428349Y-53914469D01*
X107428349Y-53914469D02*
X107417882Y-53906627D01*
X107417882Y-53906627D02*
X107406003Y-53897722D01*
X107406003Y-53897722D02*
X107392765Y-53887794D01*
X107392765Y-53887794D02*
X107378220Y-53876881D01*
X107378220Y-53876881D02*
X107362421Y-53865022D01*
X107362421Y-53865022D02*
X107345421Y-53852255D01*
X107345421Y-53852255D02*
X107327274Y-53838619D01*
X107327274Y-53838619D02*
X107308031Y-53824153D01*
X107308031Y-53824153D02*
X107287746Y-53808895D01*
X107287746Y-53808895D02*
X107266472Y-53792883D01*
X107266472Y-53792883D02*
X107244261Y-53776157D01*
X107244261Y-53776157D02*
X107221166Y-53758755D01*
X107221166Y-53758755D02*
X107197241Y-53740716D01*
X107197241Y-53740716D02*
X107172538Y-53722078D01*
X107172538Y-53722078D02*
X107147109Y-53702879D01*
X107147109Y-53702879D02*
X107121009Y-53683159D01*
X107121009Y-53683159D02*
X107094289Y-53662956D01*
X107094289Y-53662956D02*
X107067003Y-53642309D01*
X107067003Y-53642309D02*
X107039203Y-53621255D01*
X107039203Y-53621255D02*
X107010943Y-53599835D01*
X107010943Y-53599835D02*
X106982274Y-53578086D01*
X106982274Y-53578086D02*
X106953251Y-53556047D01*
X106953251Y-53556047D02*
X106923926Y-53533756D01*
X106923926Y-53533756D02*
X106894351Y-53511253D01*
X106894351Y-53511253D02*
X106864580Y-53488575D01*
X106864580Y-53488575D02*
X106834666Y-53465762D01*
X106834666Y-53465762D02*
X106804661Y-53442852D01*
X106804661Y-53442852D02*
X106774618Y-53419883D01*
X106774618Y-53419883D02*
X106744590Y-53396895D01*
X106744590Y-53396895D02*
X106714630Y-53373926D01*
X106714630Y-53373926D02*
X106684792Y-53351014D01*
X106684792Y-53351014D02*
X106655126Y-53328198D01*
X106655126Y-53328198D02*
X106625688Y-53305516D01*
X106625688Y-53305516D02*
X106596529Y-53283008D01*
X106596529Y-53283008D02*
X106567702Y-53260711D01*
X106567702Y-53260711D02*
X106539260Y-53238665D01*
X106539260Y-53238665D02*
X106511257Y-53216909D01*
X106511257Y-53216909D02*
X106483744Y-53195479D01*
X106483744Y-53195479D02*
X106456775Y-53174416D01*
X106456775Y-53174416D02*
X106430403Y-53153758D01*
X106430403Y-53153758D02*
X106404680Y-53133543D01*
X106404680Y-53133543D02*
X106379660Y-53113810D01*
X106379660Y-53113810D02*
X106355395Y-53094598D01*
X106355395Y-53094598D02*
X106331938Y-53075945D01*
X106331938Y-53075945D02*
X106309342Y-53057890D01*
X106309342Y-53057890D02*
X106287661Y-53040471D01*
X106287661Y-53040471D02*
X106266945Y-53023728D01*
X106266945Y-53023728D02*
X106247250Y-53007698D01*
X106247250Y-53007698D02*
X106228627Y-52992420D01*
X106228627Y-52992420D02*
X106211129Y-52977933D01*
X106211129Y-52977933D02*
X106194809Y-52964276D01*
X106194809Y-52964276D02*
X106179721Y-52951486D01*
X106179721Y-52951486D02*
X106165916Y-52939604D01*
X106165916Y-52939604D02*
X106153449Y-52928666D01*
X106153449Y-52928666D02*
X106142370Y-52918713D01*
X106142370Y-52918713D02*
X106132735Y-52909782D01*
X106132735Y-52909782D02*
X106124595Y-52901912D01*
X106124595Y-52901912D02*
X106118003Y-52895141D01*
X106118003Y-52895141D02*
X106113013Y-52889509D01*
X106113013Y-52889509D02*
X106103439Y-52878091D01*
X106103439Y-52878091D02*
X106093446Y-52866504D01*
X106093446Y-52866504D02*
X106083038Y-52854751D01*
X106083038Y-52854751D02*
X106072221Y-52842837D01*
X106072221Y-52842837D02*
X106060999Y-52830765D01*
X106060999Y-52830765D02*
X106049379Y-52818540D01*
X106049379Y-52818540D02*
X106037366Y-52806166D01*
X106037366Y-52806166D02*
X106024964Y-52793646D01*
X106024964Y-52793646D02*
X106012178Y-52780984D01*
X106012178Y-52780984D02*
X105999015Y-52768186D01*
X105999015Y-52768186D02*
X105985480Y-52755254D01*
X105985480Y-52755254D02*
X105971576Y-52742193D01*
X105971576Y-52742193D02*
X105957311Y-52729007D01*
X105957311Y-52729007D02*
X105942689Y-52715700D01*
X105942689Y-52715700D02*
X105927714Y-52702275D01*
X105927714Y-52702275D02*
X105912394Y-52688738D01*
X105912394Y-52688738D02*
X105896732Y-52675091D01*
X105896732Y-52675091D02*
X105880734Y-52661340D01*
X105880734Y-52661340D02*
X105864405Y-52647487D01*
X105864405Y-52647487D02*
X105847750Y-52633538D01*
X105847750Y-52633538D02*
X105830776Y-52619496D01*
X105830776Y-52619496D02*
X105813486Y-52605364D01*
X105813486Y-52605364D02*
X105795886Y-52591148D01*
X105795886Y-52591148D02*
X105777981Y-52576852D01*
X105777981Y-52576852D02*
X105759777Y-52562478D01*
X105759777Y-52562478D02*
X105741279Y-52548032D01*
X105741279Y-52548032D02*
X105722491Y-52533517D01*
X105722491Y-52533517D02*
X105703420Y-52518938D01*
X105703420Y-52518938D02*
X105684071Y-52504298D01*
X105684071Y-52504298D02*
X105664448Y-52489601D01*
X105664448Y-52489601D02*
X105644557Y-52474852D01*
X105644557Y-52474852D02*
X105624403Y-52460054D01*
X105624403Y-52460054D02*
X105603992Y-52445212D01*
X105603992Y-52445212D02*
X105583328Y-52430330D01*
X105583328Y-52430330D02*
X105562417Y-52415411D01*
X105562417Y-52415411D02*
X105541264Y-52400460D01*
X105541264Y-52400460D02*
X105519875Y-52385481D01*
X105519875Y-52385481D02*
X105498254Y-52370477D01*
X105498254Y-52370477D02*
X105476406Y-52355453D01*
X105476406Y-52355453D02*
X105454338Y-52340413D01*
X105454338Y-52340413D02*
X105432054Y-52325360D01*
X105432054Y-52325360D02*
X105409559Y-52310300D01*
X105409559Y-52310300D02*
X105386860Y-52295235D01*
X105386860Y-52295235D02*
X105363960Y-52280171D01*
X105363960Y-52280171D02*
X105340865Y-52265110D01*
X105340865Y-52265110D02*
X105317580Y-52250058D01*
X105317580Y-52250058D02*
X105294112Y-52235017D01*
X105294112Y-52235017D02*
X105270464Y-52219993D01*
X105270464Y-52219993D02*
X105246642Y-52204989D01*
X105246642Y-52204989D02*
X105222651Y-52190009D01*
X105222651Y-52190009D02*
X105198497Y-52175057D01*
X105198497Y-52175057D02*
X105174185Y-52160138D01*
X105174185Y-52160138D02*
X105149719Y-52145254D01*
X105149719Y-52145254D02*
X105125106Y-52130411D01*
X105125106Y-52130411D02*
X105100351Y-52115613D01*
X105100351Y-52115613D02*
X105075458Y-52100863D01*
X105075458Y-52100863D02*
X105050433Y-52086165D01*
X105050433Y-52086165D02*
X105025281Y-52071523D01*
X105025281Y-52071523D02*
X105000007Y-52056943D01*
X105000007Y-52056943D02*
X104974617Y-52042426D01*
X104974617Y-52042426D02*
X104949116Y-52027979D01*
X104949116Y-52027979D02*
X104923509Y-52013604D01*
X104923509Y-52013604D02*
X104897801Y-51999305D01*
X104897801Y-51999305D02*
X104871998Y-51985088D01*
X104871998Y-51985088D02*
X104846105Y-51970955D01*
X104846105Y-51970955D02*
X104820126Y-51956910D01*
X104820126Y-51956910D02*
X104794068Y-51942959D01*
X104794068Y-51942959D02*
X104767935Y-51929104D01*
X104767935Y-51929104D02*
X104741733Y-51915351D01*
X104741733Y-51915351D02*
X104715467Y-51901702D01*
X104715467Y-51901702D02*
X104689142Y-51888162D01*
X104689142Y-51888162D02*
X104662763Y-51874735D01*
X104662763Y-51874735D02*
X104636336Y-51861425D01*
X104636336Y-51861425D02*
X104609866Y-51848237D01*
X104609866Y-51848237D02*
X104583357Y-51835173D01*
X104583357Y-51835173D02*
X104556816Y-51822238D01*
X104556816Y-51822238D02*
X104530248Y-51809437D01*
X104530248Y-51809437D02*
X104503657Y-51796773D01*
X104503657Y-51796773D02*
X104477049Y-51784250D01*
X104477049Y-51784250D02*
X104450430Y-51771872D01*
X104450430Y-51771872D02*
X104423804Y-51759644D01*
X104423804Y-51759644D02*
X104397176Y-51747568D01*
X104397176Y-51747568D02*
X104370553Y-51735651D01*
X104370553Y-51735651D02*
X104343938Y-51723895D01*
X104343938Y-51723895D02*
X104317338Y-51712304D01*
X104317338Y-51712304D02*
X104290758Y-51700882D01*
X104290758Y-51700882D02*
X104264202Y-51689635D01*
X104264202Y-51689635D02*
X104237677Y-51678565D01*
X104237677Y-51678565D02*
X104211186Y-51667676D01*
X104211186Y-51667676D02*
X104184737Y-51656973D01*
X104184737Y-51656973D02*
X104158333Y-51646460D01*
X104158333Y-51646460D02*
X104131979Y-51636140D01*
X104131979Y-51636140D02*
X104105683Y-51626018D01*
X104105683Y-51626018D02*
X104079447Y-51616098D01*
X104079447Y-51616098D02*
X104053278Y-51606384D01*
X104053278Y-51606384D02*
X104027181Y-51596880D01*
X104027181Y-51596880D02*
X104001162Y-51587589D01*
X104001162Y-51587589D02*
X103975224Y-51578517D01*
X103975224Y-51578517D02*
X103949374Y-51569666D01*
X103949374Y-51569666D02*
X103923617Y-51561042D01*
X103923617Y-51561042D02*
X103897958Y-51552647D01*
X103897958Y-51552647D02*
X103872402Y-51544487D01*
X103872402Y-51544487D02*
X103846955Y-51536565D01*
X103846955Y-51536565D02*
X103821622Y-51528885D01*
X103821622Y-51528885D02*
X103796407Y-51521451D01*
X103796407Y-51521451D02*
X103771317Y-51514267D01*
X103771317Y-51514267D02*
X103746356Y-51507337D01*
X103746356Y-51507337D02*
X103721530Y-51500666D01*
X103721530Y-51500666D02*
X103696801Y-51494202D01*
X103696801Y-51494202D02*
X103672031Y-51487866D01*
X103672031Y-51487866D02*
X103647220Y-51481655D01*
X103647220Y-51481655D02*
X103622368Y-51475571D01*
X103622368Y-51475571D02*
X103597477Y-51469612D01*
X103597477Y-51469612D02*
X103572547Y-51463777D01*
X103572547Y-51463777D02*
X103547579Y-51458067D01*
X103547579Y-51458067D02*
X103522572Y-51452480D01*
X103522572Y-51452480D02*
X103497527Y-51447015D01*
X103497527Y-51447015D02*
X103472445Y-51441673D01*
X103472445Y-51441673D02*
X103447327Y-51436451D01*
X103447327Y-51436451D02*
X103422173Y-51431351D01*
X103422173Y-51431351D02*
X103396984Y-51426371D01*
X103396984Y-51426371D02*
X103371759Y-51421510D01*
X103371759Y-51421510D02*
X103346500Y-51416769D01*
X103346500Y-51416769D02*
X103321207Y-51412145D01*
X103321207Y-51412145D02*
X103295881Y-51407639D01*
X103295881Y-51407639D02*
X103270522Y-51403250D01*
X103270522Y-51403250D02*
X103245130Y-51398977D01*
X103245130Y-51398977D02*
X103219707Y-51394820D01*
X103219707Y-51394820D02*
X103194253Y-51390779D01*
X103194253Y-51390779D02*
X103168768Y-51386851D01*
X103168768Y-51386851D02*
X103143252Y-51383037D01*
X103143252Y-51383037D02*
X103117707Y-51379337D01*
X103117707Y-51379337D02*
X103092133Y-51375749D01*
X103092133Y-51375749D02*
X103066530Y-51372272D01*
X103066530Y-51372272D02*
X103040900Y-51368907D01*
X103040900Y-51368907D02*
X103015241Y-51365653D01*
X103015241Y-51365653D02*
X102989556Y-51362509D01*
X102989556Y-51362509D02*
X102963844Y-51359474D01*
X102963844Y-51359474D02*
X102938107Y-51356547D01*
X102938107Y-51356547D02*
X102912343Y-51353729D01*
X102912343Y-51353729D02*
X102886555Y-51351018D01*
X102886555Y-51351018D02*
X102860743Y-51348414D01*
X102860743Y-51348414D02*
X102834907Y-51345916D01*
X102834907Y-51345916D02*
X102809047Y-51343523D01*
X102809047Y-51343523D02*
X102783165Y-51341236D01*
X102783165Y-51341236D02*
X102757261Y-51339052D01*
X102757261Y-51339052D02*
X102731334Y-51336972D01*
X102731334Y-51336972D02*
X102705387Y-51334995D01*
X102705387Y-51334995D02*
X102679419Y-51333121D01*
X102679419Y-51333121D02*
X102653431Y-51331348D01*
X102653431Y-51331348D02*
X102627423Y-51329676D01*
X102627423Y-51329676D02*
X102601396Y-51328105D01*
X102601396Y-51328105D02*
X102575351Y-51326633D01*
X102575351Y-51326633D02*
X102549288Y-51325261D01*
X102549288Y-51325261D02*
X102523207Y-51323987D01*
X102523207Y-51323987D02*
X102497109Y-51322811D01*
X102497109Y-51322811D02*
X102470995Y-51321732D01*
X102470995Y-51321732D02*
X102444865Y-51320750D01*
X102444865Y-51320750D02*
X102418720Y-51319863D01*
X102418720Y-51319863D02*
X102392559Y-51319072D01*
X102392559Y-51319072D02*
X102366385Y-51318376D01*
X102366385Y-51318376D02*
X102340197Y-51317774D01*
X102340197Y-51317774D02*
X102313995Y-51317265D01*
X102313995Y-51317265D02*
X102287781Y-51316849D01*
X102287781Y-51316849D02*
X102261555Y-51316525D01*
X102261555Y-51316525D02*
X102235317Y-51316292D01*
X102235317Y-51316292D02*
X102209068Y-51316151D01*
X102209068Y-51316151D02*
X102182808Y-51316100D01*
X102182808Y-51316100D02*
X102156538Y-51316138D01*
X102156538Y-51316138D02*
X102130259Y-51316265D01*
X102130259Y-51316265D02*
X102103971Y-51316481D01*
X102103971Y-51316481D02*
X102077674Y-51316784D01*
X102077674Y-51316784D02*
X102051369Y-51317174D01*
X102051369Y-51317174D02*
X102025057Y-51317651D01*
X102025057Y-51317651D02*
X101998738Y-51318213D01*
X101998738Y-51318213D02*
X101972413Y-51318861D01*
X101972413Y-51318861D02*
X101946082Y-51319593D01*
X101946082Y-51319593D02*
X101919746Y-51320409D01*
X101919746Y-51320409D02*
X101893405Y-51321308D01*
X101893405Y-51321308D02*
X101867059Y-51322290D01*
X101867059Y-51322290D02*
X101840710Y-51323354D01*
X101840710Y-51323354D02*
X101814358Y-51324499D01*
X101814358Y-51324499D02*
X101788003Y-51325725D01*
X101788003Y-51325725D02*
X101761646Y-51327030D01*
X101761646Y-51327030D02*
X101735288Y-51328416D01*
X101735288Y-51328416D02*
X101708928Y-51329880D01*
X101708928Y-51329880D02*
X101682568Y-51331422D01*
X101682568Y-51331422D02*
X101656208Y-51333041D01*
X101656208Y-51333041D02*
X101629849Y-51334738D01*
X101629849Y-51334738D02*
X101603490Y-51336511D01*
X101603490Y-51336511D02*
X101577133Y-51338359D01*
X101577133Y-51338359D02*
X101550779Y-51340282D01*
X101550779Y-51340282D02*
X101524427Y-51342280D01*
X101524427Y-51342280D02*
X101498078Y-51344351D01*
X101498078Y-51344351D02*
X101471733Y-51346495D01*
X101471733Y-51346495D02*
X101445392Y-51348712D01*
X101445392Y-51348712D02*
X101419056Y-51351001D01*
X101419056Y-51351001D02*
X101392725Y-51353360D01*
X101392725Y-51353360D02*
X101366400Y-51355790D01*
X101366400Y-51355790D02*
X101340081Y-51358290D01*
X101340081Y-51358290D02*
X101313770Y-51360860D01*
X101313770Y-51360860D02*
X101287465Y-51363497D01*
X101287465Y-51363497D02*
X101261169Y-51366203D01*
X101261169Y-51366203D02*
X101234881Y-51368976D01*
X101234881Y-51368976D02*
X101208603Y-51371816D01*
X101208603Y-51371816D02*
X101182333Y-51374722D01*
X101182333Y-51374722D02*
X101156074Y-51377693D01*
X101156074Y-51377693D02*
X101129826Y-51380729D01*
X101129826Y-51380729D02*
X101103588Y-51383829D01*
X101103588Y-51383829D02*
X101077363Y-51386993D01*
X101077363Y-51386993D02*
X101051149Y-51390219D01*
X101051149Y-51390219D02*
X101024948Y-51393508D01*
X101024948Y-51393508D02*
X100998761Y-51396858D01*
X100998761Y-51396858D02*
X100972587Y-51400270D01*
X100972587Y-51400270D02*
X100946428Y-51403741D01*
X100946428Y-51403741D02*
X100920283Y-51407273D01*
X100920283Y-51407273D02*
X100894154Y-51410863D01*
X100894154Y-51410863D02*
X100868041Y-51414512D01*
X100868041Y-51414512D02*
X100841944Y-51418218D01*
X100841944Y-51418218D02*
X100815864Y-51421982D01*
X100815864Y-51421982D02*
X100789802Y-51425802D01*
X100789802Y-51425802D02*
X100763757Y-51429678D01*
X100763757Y-51429678D02*
X100737732Y-51433609D01*
X100737732Y-51433609D02*
X100711725Y-51437595D01*
X100711725Y-51437595D02*
X100685738Y-51441635D01*
X100685738Y-51441635D02*
X100659771Y-51445728D01*
X100659771Y-51445728D02*
X100633825Y-51449873D01*
X100633825Y-51449873D02*
X100607900Y-51454071D01*
X100607900Y-51454071D02*
X100581996Y-51458320D01*
X100581996Y-51458320D02*
X100556115Y-51462620D01*
X100556115Y-51462620D02*
X100530257Y-51466970D01*
X100530257Y-51466970D02*
X100504422Y-51471370D01*
X100504422Y-51471370D02*
X100478611Y-51475819D01*
X100478611Y-51475819D02*
X100452824Y-51480315D01*
X100452824Y-51480315D02*
X100427062Y-51484859D01*
X100427062Y-51484859D02*
X100401326Y-51489451D01*
X100401326Y-51489451D02*
X100375616Y-51494088D01*
X100375616Y-51494088D02*
X100349932Y-51498771D01*
X100349932Y-51498771D02*
X100324275Y-51503500D01*
X100324275Y-51503500D02*
X100298646Y-51508272D01*
X100298646Y-51508272D02*
X100273045Y-51513089D01*
X100273045Y-51513089D02*
X100247472Y-51517948D01*
X100247472Y-51517948D02*
X100221929Y-51522850D01*
X100221929Y-51522850D02*
X100196415Y-51527794D01*
X100196415Y-51527794D02*
X100170931Y-51532780D01*
X100170931Y-51532780D02*
X100145479Y-51537805D01*
X100145479Y-51537805D02*
X100120057Y-51542871D01*
X100120057Y-51542871D02*
X100094668Y-51547976D01*
X100094668Y-51547976D02*
X100069310Y-51553120D01*
X100069310Y-51553120D02*
X100043986Y-51558301D01*
X100043986Y-51558301D02*
X100018695Y-51563520D01*
X100018695Y-51563520D02*
X99993437Y-51568776D01*
X99993437Y-51568776D02*
X99968215Y-51574068D01*
X99968215Y-51574068D02*
X99943027Y-51579396D01*
X99943027Y-51579396D02*
X99917875Y-51584758D01*
X99917875Y-51584758D02*
X99892759Y-51590155D01*
X99892759Y-51590155D02*
X99867679Y-51595585D01*
X99867679Y-51595585D02*
X99842636Y-51601048D01*
X99842636Y-51601048D02*
X99817632Y-51606544D01*
X99817632Y-51606544D02*
X99792665Y-51612071D01*
X99792665Y-51612071D02*
X99767331Y-51617755D01*
X99767331Y-51617755D02*
X99742002Y-51623551D01*
X99742002Y-51623551D02*
X99716680Y-51629458D01*
X99716680Y-51629458D02*
X99691365Y-51635476D01*
X99691365Y-51635476D02*
X99666059Y-51641605D01*
X99666059Y-51641605D02*
X99640762Y-51647846D01*
X99640762Y-51647846D02*
X99615477Y-51654199D01*
X99615477Y-51654199D02*
X99590204Y-51660664D01*
X99590204Y-51660664D02*
X99564944Y-51667241D01*
X99564944Y-51667241D02*
X99539698Y-51673930D01*
X99539698Y-51673930D02*
X99514469Y-51680731D01*
X99514469Y-51680731D02*
X99489256Y-51687645D01*
X99489256Y-51687645D02*
X99464061Y-51694672D01*
X99464061Y-51694672D02*
X99438885Y-51701812D01*
X99438885Y-51701812D02*
X99413730Y-51709064D01*
X99413730Y-51709064D02*
X99388596Y-51716430D01*
X99388596Y-51716430D02*
X99363485Y-51723909D01*
X99363485Y-51723909D02*
X99338397Y-51731502D01*
X99338397Y-51731502D02*
X99313335Y-51739208D01*
X99313335Y-51739208D02*
X99288299Y-51747028D01*
X99288299Y-51747028D02*
X99263290Y-51754961D01*
X99263290Y-51754961D02*
X99238310Y-51763009D01*
X99238310Y-51763009D02*
X99213359Y-51771171D01*
X99213359Y-51771171D02*
X99188440Y-51779448D01*
X99188440Y-51779448D02*
X99163552Y-51787839D01*
X99163552Y-51787839D02*
X99138698Y-51796345D01*
X99138698Y-51796345D02*
X99113878Y-51804965D01*
X99113878Y-51804965D02*
X99089093Y-51813701D01*
X99089093Y-51813701D02*
X99064345Y-51822552D01*
X99064345Y-51822552D02*
X99039635Y-51831518D01*
X99039635Y-51831518D02*
X99014964Y-51840599D01*
X99014964Y-51840599D02*
X98990334Y-51849797D01*
X98990334Y-51849797D02*
X98965744Y-51859110D01*
X98965744Y-51859110D02*
X98941198Y-51868538D01*
X98941198Y-51868538D02*
X98916695Y-51878083D01*
X98916695Y-51878083D02*
X98892236Y-51887744D01*
X98892236Y-51887744D02*
X98867824Y-51897522D01*
X98867824Y-51897522D02*
X98843459Y-51907416D01*
X98843459Y-51907416D02*
X98819143Y-51917427D01*
X98819143Y-51917427D02*
X98794876Y-51927554D01*
X98794876Y-51927554D02*
X98770660Y-51937799D01*
X98770660Y-51937799D02*
X98746495Y-51948161D01*
X98746495Y-51948161D02*
X98722384Y-51958640D01*
X98722384Y-51958640D02*
X98698327Y-51969237D01*
X98698327Y-51969237D02*
X98674325Y-51979951D01*
X98674325Y-51979951D02*
X98650380Y-51990783D01*
X98650380Y-51990783D02*
X98626493Y-52001733D01*
X98626493Y-52001733D02*
X98602664Y-52012800D01*
X98602664Y-52012800D02*
X98578896Y-52023987D01*
X98578896Y-52023987D02*
X98555189Y-52035291D01*
X98555189Y-52035291D02*
X98531544Y-52046714D01*
X98531544Y-52046714D02*
X98507963Y-52058256D01*
X98507963Y-52058256D02*
X98484447Y-52069917D01*
X98484447Y-52069917D02*
X98460996Y-52081696D01*
X98460996Y-52081696D02*
X98437613Y-52093595D01*
X98437613Y-52093595D02*
X98414298Y-52105613D01*
X98414298Y-52105613D02*
X98391052Y-52117751D01*
X98391052Y-52117751D02*
X98367877Y-52130008D01*
X98367877Y-52130008D02*
X98344773Y-52142385D01*
X98344773Y-52142385D02*
X98321743Y-52154882D01*
X98321743Y-52154882D02*
X98298786Y-52167499D01*
X98298786Y-52167499D02*
X98275905Y-52180236D01*
X98275905Y-52180236D02*
X98253101Y-52193094D01*
X98253101Y-52193094D02*
X98230374Y-52206072D01*
X98230374Y-52206072D02*
X98207725Y-52219171D01*
X98207725Y-52219171D02*
X98185157Y-52232390D01*
X98185157Y-52232390D02*
X98162670Y-52245731D01*
X98162670Y-52245731D02*
X98140265Y-52259193D01*
X98140265Y-52259193D02*
X98117943Y-52272776D01*
X98117943Y-52272776D02*
X98095706Y-52286480D01*
X98095706Y-52286480D02*
X98073555Y-52300306D01*
X98073555Y-52300306D02*
X98051491Y-52314254D01*
X98051491Y-52314254D02*
X98029514Y-52328324D01*
X98029514Y-52328324D02*
X98007628Y-52342516D01*
X98007628Y-52342516D02*
X97985831Y-52356830D01*
X97985831Y-52356830D02*
X97964126Y-52371267D01*
X97964126Y-52371267D02*
X97942514Y-52385826D01*
X97942514Y-52385826D02*
X97920996Y-52400508D01*
X97920996Y-52400508D02*
X97899573Y-52415313D01*
X97899573Y-52415313D02*
X97878247Y-52430240D01*
X97878247Y-52430240D02*
X97857018Y-52445291D01*
X97857018Y-52445291D02*
X97835887Y-52460465D01*
X97835887Y-52460465D02*
X97814856Y-52475763D01*
X97814856Y-52475763D02*
X97793927Y-52491184D01*
X97793927Y-52491184D02*
X97773099Y-52506729D01*
X97773099Y-52506729D02*
X97752375Y-52522398D01*
X97752375Y-52522398D02*
X97731755Y-52538191D01*
X97731755Y-52538191D02*
X97711241Y-52554108D01*
X97711241Y-52554108D02*
X97690833Y-52570150D01*
X97690833Y-52570150D02*
X97670925Y-52586003D01*
X97670925Y-52586003D02*
X97651082Y-52602013D01*
X97651082Y-52602013D02*
X97631312Y-52618178D01*
X97631312Y-52618178D02*
X97611620Y-52634499D01*
X97611620Y-52634499D02*
X97592014Y-52650975D01*
X97592014Y-52650975D02*
X97572500Y-52667606D01*
X97572500Y-52667606D02*
X97553084Y-52684393D01*
X97553084Y-52684393D02*
X97533772Y-52701334D01*
X97533772Y-52701334D02*
X97514572Y-52718431D01*
X97514572Y-52718431D02*
X97495489Y-52735682D01*
X97495489Y-52735682D02*
X97476530Y-52753088D01*
X97476530Y-52753088D02*
X97457701Y-52770648D01*
X97457701Y-52770648D02*
X97439010Y-52788362D01*
X97439010Y-52788362D02*
X97420461Y-52806231D01*
X97420461Y-52806231D02*
X97402063Y-52824255D01*
X97402063Y-52824255D02*
X97383821Y-52842432D01*
X97383821Y-52842432D02*
X97365741Y-52860763D01*
X97365741Y-52860763D02*
X97347831Y-52879248D01*
X97347831Y-52879248D02*
X97330096Y-52897886D01*
X97330096Y-52897886D02*
X97312544Y-52916678D01*
X97312544Y-52916678D02*
X97295180Y-52935624D01*
X97295180Y-52935624D02*
X97278011Y-52954723D01*
X97278011Y-52954723D02*
X97261043Y-52973975D01*
X97261043Y-52973975D02*
X97244283Y-52993380D01*
X97244283Y-52993380D02*
X97227738Y-53012938D01*
X97227738Y-53012938D02*
X97211414Y-53032649D01*
X97211414Y-53032649D02*
X97195316Y-53052513D01*
X97195316Y-53052513D02*
X97179453Y-53072529D01*
X97179453Y-53072529D02*
X97163829Y-53092698D01*
X97163829Y-53092698D02*
X97148452Y-53113019D01*
X97148452Y-53113019D02*
X97133329Y-53133492D01*
X97133329Y-53133492D02*
X97118465Y-53154118D01*
X97118465Y-53154118D02*
X97103866Y-53174895D01*
X97103866Y-53174895D02*
X97089541Y-53195824D01*
X97089541Y-53195824D02*
X97075494Y-53216905D01*
X97075494Y-53216905D02*
X97061732Y-53238138D01*
X97061732Y-53238138D02*
X97048262Y-53259522D01*
X97048262Y-53259522D02*
X97035091Y-53281058D01*
X97035091Y-53281058D02*
X97022224Y-53302744D01*
X97022224Y-53302744D02*
X97009668Y-53324582D01*
X97009668Y-53324582D02*
X96997430Y-53346571D01*
X96997430Y-53346571D02*
X96985516Y-53368711D01*
X96985516Y-53368711D02*
X96973933Y-53391002D01*
X96973933Y-53391002D02*
X96962686Y-53413443D01*
X96962686Y-53413443D02*
X96951783Y-53436035D01*
X96951783Y-53436035D02*
X96941230Y-53458777D01*
X96941230Y-53458777D02*
X96931033Y-53481670D01*
X96931033Y-53481670D02*
X96921199Y-53504713D01*
X96921199Y-53504713D02*
X96911734Y-53527905D01*
X96911734Y-53527905D02*
X96902645Y-53551248D01*
X96902645Y-53551248D02*
X96893938Y-53574741D01*
X96893938Y-53574741D02*
X96885619Y-53598383D01*
X96885619Y-53598383D02*
X96877696Y-53622175D01*
X96877696Y-53622175D02*
X96870174Y-53646116D01*
X96870174Y-53646116D02*
X96863060Y-53670207D01*
X96863060Y-53670207D02*
X96856361Y-53694447D01*
X96856361Y-53694447D02*
X96850082Y-53718836D01*
X96850082Y-53718836D02*
X96844231Y-53743374D01*
X96844231Y-53743374D02*
X96838813Y-53768060D01*
X96838813Y-53768060D02*
X96833836Y-53792896D01*
X96833836Y-53792896D02*
X96829305Y-53817880D01*
X96829305Y-53817880D02*
X96825007Y-53843544D01*
X96825007Y-53843544D02*
X96820916Y-53869263D01*
X96820916Y-53869263D02*
X96817022Y-53895034D01*
X96817022Y-53895034D02*
X96813317Y-53920856D01*
X96813317Y-53920856D02*
X96809790Y-53946724D01*
X96809790Y-53946724D02*
X96806434Y-53972637D01*
X96806434Y-53972637D02*
X96803239Y-53998593D01*
X96803239Y-53998593D02*
X96800197Y-54024587D01*
X96800197Y-54024587D02*
X96797297Y-54050618D01*
X96797297Y-54050618D02*
X96794531Y-54076683D01*
X96794531Y-54076683D02*
X96791891Y-54102780D01*
X96791891Y-54102780D02*
X96789366Y-54128905D01*
X96789366Y-54128905D02*
X96786949Y-54155057D01*
X96786949Y-54155057D02*
X96784629Y-54181232D01*
X96784629Y-54181232D02*
X96782398Y-54207428D01*
X96782398Y-54207428D02*
X96780247Y-54233641D01*
X96780247Y-54233641D02*
X96778167Y-54259871D01*
X96778167Y-54259871D02*
X96776148Y-54286113D01*
X96776148Y-54286113D02*
X96774182Y-54312366D01*
X96774182Y-54312366D02*
X96772260Y-54338626D01*
X96772260Y-54338626D02*
X96770372Y-54364892D01*
X96770372Y-54364892D02*
X96768510Y-54391159D01*
X96768510Y-54391159D02*
X96766664Y-54417427D01*
X96766664Y-54417427D02*
X96764825Y-54443691D01*
X96764825Y-54443691D02*
X96762985Y-54469950D01*
X96762985Y-54469950D02*
X96761135Y-54496201D01*
X96761135Y-54496201D02*
X96759264Y-54522441D01*
X96759264Y-54522441D02*
X96757365Y-54548667D01*
X96757365Y-54548667D02*
X96755428Y-54574877D01*
X96755428Y-54574877D02*
X96753445Y-54601068D01*
X96753445Y-54601068D02*
X96751405Y-54627238D01*
X96751405Y-54627238D02*
X96749301Y-54653384D01*
X96749301Y-54653384D02*
X96747122Y-54679504D01*
X96747122Y-54679504D02*
X96744861Y-54705593D01*
X96744861Y-54705593D02*
X96742507Y-54731651D01*
X96742507Y-54731651D02*
X96740052Y-54757675D01*
X96740052Y-54757675D02*
X96737487Y-54783661D01*
X96737487Y-54783661D02*
X96734803Y-54809607D01*
X96734803Y-54809607D02*
X96731991Y-54835510D01*
X96731991Y-54835510D02*
X96729041Y-54861369D01*
X96729041Y-54861369D02*
X96725103Y-54894723D01*
X96725103Y-54894723D02*
X96721203Y-54927070D01*
X96721203Y-54927070D02*
X96717330Y-54958456D01*
X96717330Y-54958456D02*
X96713474Y-54988928D01*
X96713474Y-54988928D02*
X96709624Y-55018530D01*
X96709624Y-55018530D02*
X96705769Y-55047309D01*
X96705769Y-55047309D02*
X96701898Y-55075310D01*
X96701898Y-55075310D02*
X96698002Y-55102579D01*
X96698002Y-55102579D02*
X96694070Y-55129162D01*
X96694070Y-55129162D02*
X96690089Y-55155104D01*
X96690089Y-55155104D02*
X96686051Y-55180452D01*
X96686051Y-55180452D02*
X96681945Y-55205251D01*
X96681945Y-55205251D02*
X96677759Y-55229547D01*
X96677759Y-55229547D02*
X96673483Y-55253385D01*
X96673483Y-55253385D02*
X96669106Y-55276812D01*
X96669106Y-55276812D02*
X96664619Y-55299873D01*
X96664619Y-55299873D02*
X96660009Y-55322613D01*
X96660009Y-55322613D02*
X96655267Y-55345080D01*
X96655267Y-55345080D02*
X96650382Y-55367318D01*
X96650382Y-55367318D02*
X96645342Y-55389373D01*
X96645342Y-55389373D02*
X96640139Y-55411291D01*
X96640139Y-55411291D02*
X96634760Y-55433117D01*
X96634760Y-55433117D02*
X96629195Y-55454899D01*
X96629195Y-55454899D02*
X96623434Y-55476680D01*
X96623434Y-55476680D02*
X96617465Y-55498508D01*
X96617465Y-55498508D02*
X96611279Y-55520427D01*
X96611279Y-55520427D02*
X96604864Y-55542484D01*
X96604864Y-55542484D02*
X96598211Y-55564724D01*
X96598211Y-55564724D02*
X96591307Y-55587193D01*
X96591307Y-55587193D02*
X96584143Y-55609937D01*
X96584143Y-55609937D02*
X96576708Y-55633002D01*
X96576708Y-55633002D02*
X96568991Y-55656433D01*
X96568991Y-55656433D02*
X96560981Y-55680276D01*
X96560981Y-55680276D02*
X96552669Y-55704577D01*
X96552669Y-55704577D02*
X96544043Y-55729382D01*
X96544043Y-55729382D02*
X96535092Y-55754736D01*
X96535092Y-55754736D02*
X96525806Y-55780686D01*
X96525806Y-55780686D02*
X96516175Y-55807276D01*
X96516175Y-55807276D02*
X96506187Y-55834553D01*
X96506187Y-55834553D02*
X96495833Y-55862563D01*
X96495833Y-55862563D02*
X96485100Y-55891350D01*
X96485100Y-55891350D02*
X96473979Y-55920962D01*
X96473979Y-55920962D02*
X96462460Y-55951444D01*
X96462460Y-55951444D02*
X96450530Y-55982841D01*
X96450530Y-55982841D02*
X96440903Y-56009007D01*
X96440903Y-56009007D02*
X96431865Y-56035366D01*
X96431865Y-56035366D02*
X96423402Y-56061907D01*
X96423402Y-56061907D02*
X96415499Y-56088616D01*
X96415499Y-56088616D02*
X96408143Y-56115482D01*
X96408143Y-56115482D02*
X96401317Y-56142490D01*
X96401317Y-56142490D02*
X96395008Y-56169630D01*
X96395008Y-56169630D02*
X96389202Y-56196888D01*
X96389202Y-56196888D02*
X96383883Y-56224251D01*
X96383883Y-56224251D02*
X96379037Y-56251708D01*
X96379037Y-56251708D02*
X96374650Y-56279246D01*
X96374650Y-56279246D02*
X96370707Y-56306851D01*
X96370707Y-56306851D02*
X96367194Y-56334513D01*
X96367194Y-56334513D02*
X96364095Y-56362217D01*
X96364095Y-56362217D02*
X96361397Y-56389952D01*
X96361397Y-56389952D02*
X96359085Y-56417705D01*
X96359085Y-56417705D02*
X96357144Y-56445463D01*
X96357144Y-56445463D02*
X96355560Y-56473214D01*
X96355560Y-56473214D02*
X96354318Y-56500946D01*
X96354318Y-56500946D02*
X96353404Y-56528645D01*
X96353404Y-56528645D02*
X96352803Y-56556300D01*
X96352803Y-56556300D02*
X96352501Y-56583897D01*
X96352501Y-56583897D02*
X96352483Y-56611425D01*
X96352483Y-56611425D02*
X96352735Y-56638870D01*
X96352735Y-56638870D02*
X96353241Y-56666220D01*
X96353241Y-56666220D02*
X96353989Y-56693462D01*
X96353989Y-56693462D02*
X96354962Y-56720585D01*
X96354962Y-56720585D02*
X96356146Y-56747575D01*
X96356146Y-56747575D02*
X96357528Y-56774420D01*
X96357528Y-56774420D02*
X96359091Y-56801108D01*
X96359091Y-56801108D02*
X96360823Y-56827625D01*
X96360823Y-56827625D02*
X96362708Y-56853960D01*
X96362708Y-56853960D02*
X96364731Y-56880099D01*
X96364731Y-56880099D02*
X96366879Y-56906030D01*
X96366879Y-56906030D02*
X96369136Y-56931741D01*
X96369136Y-56931741D02*
X96371489Y-56957219D01*
X96371489Y-56957219D02*
X96373922Y-56982452D01*
X96373922Y-56982452D02*
X96376421Y-57007427D01*
X96376421Y-57007427D02*
X96378971Y-57032131D01*
X96378971Y-57032131D02*
X96381559Y-57056552D01*
X96381559Y-57056552D02*
X96384169Y-57080678D01*
X96384169Y-57080678D02*
X96386787Y-57104495D01*
X96386787Y-57104495D02*
X96389398Y-57127992D01*
X96389398Y-57127992D02*
X96391988Y-57151155D01*
X96391988Y-57151155D02*
X96394542Y-57173973D01*
X96394542Y-57173973D02*
X96397046Y-57196432D01*
X96397046Y-57196432D02*
X96399485Y-57218520D01*
X96399485Y-57218520D02*
X96401844Y-57240225D01*
X96401844Y-57240225D02*
X96404110Y-57261534D01*
X96404110Y-57261534D02*
X96406267Y-57282434D01*
X96406267Y-57282434D02*
X96408301Y-57302914D01*
X96408301Y-57302914D02*
X96410198Y-57322959D01*
X96410198Y-57322959D02*
X96411943Y-57342559D01*
X96411943Y-57342559D02*
X96413521Y-57361700D01*
X96413521Y-57361700D02*
X96414918Y-57380370D01*
X96414918Y-57380370D02*
X96416119Y-57398555D01*
X96416119Y-57398555D02*
X96417110Y-57416245D01*
X96417110Y-57416245D02*
X96418318Y-57441844D01*
X96418318Y-57441844D02*
X96419356Y-57467499D01*
X96419356Y-57467499D02*
X96420229Y-57493209D01*
X96420229Y-57493209D02*
X96420936Y-57518970D01*
X96420936Y-57518970D02*
X96421480Y-57544781D01*
X96421480Y-57544781D02*
X96421862Y-57570638D01*
X96421862Y-57570638D02*
X96422084Y-57596540D01*
X96422084Y-57596540D02*
X96422148Y-57622484D01*
X96422148Y-57622484D02*
X96422055Y-57648467D01*
X96422055Y-57648467D02*
X96421808Y-57674486D01*
X96421808Y-57674486D02*
X96421407Y-57700541D01*
X96421407Y-57700541D02*
X96420855Y-57726627D01*
X96420855Y-57726627D02*
X96420152Y-57752742D01*
X96420152Y-57752742D02*
X96419302Y-57778884D01*
X96419302Y-57778884D02*
X96418306Y-57805051D01*
X96418306Y-57805051D02*
X96417164Y-57831240D01*
X96417164Y-57831240D02*
X96415880Y-57857448D01*
X96415880Y-57857448D02*
X96414454Y-57883673D01*
X96414454Y-57883673D02*
X96412889Y-57909913D01*
X96412889Y-57909913D02*
X96411186Y-57936164D01*
X96411186Y-57936164D02*
X96409346Y-57962426D01*
X96409346Y-57962426D02*
X96407372Y-57988694D01*
X96407372Y-57988694D02*
X96405265Y-58014966D01*
X96405265Y-58014966D02*
X96403027Y-58041241D01*
X96403027Y-58041241D02*
X96400660Y-58067515D01*
X96400660Y-58067515D02*
X96398164Y-58093786D01*
X96398164Y-58093786D02*
X96395543Y-58120052D01*
X96395543Y-58120052D02*
X96392797Y-58146310D01*
X96392797Y-58146310D02*
X96389929Y-58172557D01*
X96389929Y-58172557D02*
X96386939Y-58198792D01*
X96386939Y-58198792D02*
X96383830Y-58225011D01*
X96383830Y-58225011D02*
X96380604Y-58251212D01*
X96380604Y-58251212D02*
X96377261Y-58277393D01*
X96377261Y-58277393D02*
X96373805Y-58303552D01*
X96373805Y-58303552D02*
X96370235Y-58329684D01*
X96370235Y-58329684D02*
X96366555Y-58355789D01*
X96366555Y-58355789D02*
X96362766Y-58381864D01*
X96362766Y-58381864D02*
X96358869Y-58407906D01*
X96358869Y-58407906D02*
X96354867Y-58433912D01*
X96354867Y-58433912D02*
X96350761Y-58459881D01*
X96350761Y-58459881D02*
X96346552Y-58485810D01*
X96346552Y-58485810D02*
X96342242Y-58511696D01*
X96342242Y-58511696D02*
X96337834Y-58537536D01*
X96337834Y-58537536D02*
X96333328Y-58563329D01*
X96333328Y-58563329D02*
X96328726Y-58589072D01*
X96328726Y-58589072D02*
X96324031Y-58614762D01*
X96324031Y-58614762D02*
X96319243Y-58640397D01*
X96319243Y-58640397D02*
X96314365Y-58665974D01*
X96314365Y-58665974D02*
X96309398Y-58691491D01*
X96309398Y-58691491D02*
X96304344Y-58716945D01*
X96304344Y-58716945D02*
X96299205Y-58742335D01*
X96299205Y-58742335D02*
X96293982Y-58767656D01*
X96293982Y-58767656D02*
X96288676Y-58792908D01*
X96288676Y-58792908D02*
X96283291Y-58818087D01*
X96283291Y-58818087D02*
X96277826Y-58843190D01*
X96277826Y-58843190D02*
X96272285Y-58868217D01*
X96272285Y-58868217D02*
X96267272Y-58893432D01*
X96267272Y-58893432D02*
X96263399Y-58918977D01*
X96263399Y-58918977D02*
X96260635Y-58944832D01*
X96260635Y-58944832D02*
X96258950Y-58970978D01*
X96258950Y-58970978D02*
X96258314Y-58997396D01*
X96258314Y-58997396D02*
X96258698Y-59024068D01*
X96258698Y-59024068D02*
X96260072Y-59050974D01*
X96260072Y-59050974D02*
X96262405Y-59078095D01*
X96262405Y-59078095D02*
X96265668Y-59105413D01*
X96265668Y-59105413D02*
X96269831Y-59132908D01*
X96269831Y-59132908D02*
X96274863Y-59160562D01*
X96274863Y-59160562D02*
X96280736Y-59188356D01*
X96280736Y-59188356D02*
X96287418Y-59216270D01*
X96287418Y-59216270D02*
X96294880Y-59244287D01*
X96294880Y-59244287D02*
X96303093Y-59272386D01*
X96303093Y-59272386D02*
X96312025Y-59300549D01*
X96312025Y-59300549D02*
X96321648Y-59328757D01*
X96321648Y-59328757D02*
X96331932Y-59356991D01*
X96331932Y-59356991D02*
X96342845Y-59385233D01*
X96342845Y-59385233D02*
X96354359Y-59413462D01*
X96354359Y-59413462D02*
X96366444Y-59441661D01*
X96366444Y-59441661D02*
X96379069Y-59469811D01*
X96379069Y-59469811D02*
X96392204Y-59497891D01*
X96392204Y-59497891D02*
X96405821Y-59525885D01*
X96405821Y-59525885D02*
X96419888Y-59553771D01*
X96419888Y-59553771D02*
X96434376Y-59581533D01*
X96434376Y-59581533D02*
X96449255Y-59609150D01*
X96449255Y-59609150D02*
X96464495Y-59636604D01*
X96464495Y-59636604D02*
X96480066Y-59663876D01*
X96480066Y-59663876D02*
X96495938Y-59690947D01*
X96495938Y-59690947D02*
X96512081Y-59717797D01*
X96512081Y-59717797D02*
X96528465Y-59744409D01*
X96528465Y-59744409D02*
X96545061Y-59770763D01*
X96545061Y-59770763D02*
X96561838Y-59796840D01*
X96561838Y-59796840D02*
X96578767Y-59822621D01*
X96578767Y-59822621D02*
X96595817Y-59848088D01*
X96595817Y-59848088D02*
X96612958Y-59873221D01*
X96612958Y-59873221D02*
X96630161Y-59898001D01*
X96630161Y-59898001D02*
X96647396Y-59922410D01*
X96647396Y-59922410D02*
X96664633Y-59946429D01*
X96664633Y-59946429D02*
X96681842Y-59970038D01*
X96681842Y-59970038D02*
X96698992Y-59993219D01*
X96698992Y-59993219D02*
X96716055Y-60015953D01*
X96716055Y-60015953D02*
X96732999Y-60038220D01*
X96732999Y-60038220D02*
X96749796Y-60060003D01*
X96749796Y-60060003D02*
X96766415Y-60081281D01*
X96766415Y-60081281D02*
X96782826Y-60102037D01*
X96782826Y-60102037D02*
X96798999Y-60122251D01*
X96798999Y-60122251D02*
X96814905Y-60141903D01*
X96814905Y-60141903D02*
X96830513Y-60160977D01*
X96830513Y-60160977D02*
X96845794Y-60179451D01*
X96845794Y-60179451D02*
X96860717Y-60197308D01*
X96860717Y-60197308D02*
X96875253Y-60214528D01*
X96875253Y-60214528D02*
X96889372Y-60231093D01*
X96889372Y-60231093D02*
X96903043Y-60246984D01*
X96903043Y-60246984D02*
X96916237Y-60262181D01*
X96916237Y-60262181D02*
X96928925Y-60276666D01*
X96928925Y-60276666D02*
X96941075Y-60290419D01*
X96941075Y-60290419D02*
X96952658Y-60303423D01*
X96952658Y-60303423D02*
X96963644Y-60315658D01*
X96963644Y-60315658D02*
X96974004Y-60327104D01*
X96974004Y-60327104D02*
X96983707Y-60337744D01*
X96983707Y-60337744D02*
X96992723Y-60347557D01*
X96992723Y-60347557D02*
X97001022Y-60356526D01*
X97001022Y-60356526D02*
X97008575Y-60364632D01*
X97008575Y-60364632D02*
X97015352Y-60371854D01*
X97015352Y-60371854D02*
X97021322Y-60378175D01*
X97021322Y-60378175D02*
X97026456Y-60383576D01*
X97026456Y-60383576D02*
X97030723Y-60388037D01*
X97030723Y-60388037D02*
X97034094Y-60391539D01*
X97034094Y-60391539D02*
X97036539Y-60394065D01*
X97036539Y-60394065D02*
X97038028Y-60395594D01*
X97038028Y-60395594D02*
X97038531Y-60396108D01*
D12*
X97215507Y-57122880D02*
X97216485Y-57122274D01*
X97216485Y-57122274D02*
X97219375Y-57120485D01*
X97219375Y-57120485D02*
X97224114Y-57117556D01*
X97224114Y-57117556D02*
X97230639Y-57113532D01*
X97230639Y-57113532D02*
X97238887Y-57108456D01*
X97238887Y-57108456D02*
X97248793Y-57102371D01*
X97248793Y-57102371D02*
X97260295Y-57095321D01*
X97260295Y-57095321D02*
X97273328Y-57087350D01*
X97273328Y-57087350D02*
X97287830Y-57078501D01*
X97287830Y-57078501D02*
X97303737Y-57068818D01*
X97303737Y-57068818D02*
X97320985Y-57058345D01*
X97320985Y-57058345D02*
X97339511Y-57047125D01*
X97339511Y-57047125D02*
X97359251Y-57035202D01*
X97359251Y-57035202D02*
X97380143Y-57022620D01*
X97380143Y-57022620D02*
X97402122Y-57009421D01*
X97402122Y-57009421D02*
X97425125Y-56995651D01*
X97425125Y-56995651D02*
X97449089Y-56981351D01*
X97449089Y-56981351D02*
X97473950Y-56966567D01*
X97473950Y-56966567D02*
X97499645Y-56951341D01*
X97499645Y-56951341D02*
X97526110Y-56935717D01*
X97526110Y-56935717D02*
X97553281Y-56919739D01*
X97553281Y-56919739D02*
X97581096Y-56903451D01*
X97581096Y-56903451D02*
X97609491Y-56886896D01*
X97609491Y-56886896D02*
X97638402Y-56870117D01*
X97638402Y-56870117D02*
X97667765Y-56853159D01*
X97667765Y-56853159D02*
X97697518Y-56836065D01*
X97697518Y-56836065D02*
X97727597Y-56818878D01*
X97727597Y-56818878D02*
X97757939Y-56801643D01*
X97757939Y-56801643D02*
X97788479Y-56784402D01*
X97788479Y-56784402D02*
X97819155Y-56767200D01*
X97819155Y-56767200D02*
X97849903Y-56750080D01*
X97849903Y-56750080D02*
X97880659Y-56733085D01*
X97880659Y-56733085D02*
X97911360Y-56716260D01*
X97911360Y-56716260D02*
X97941943Y-56699648D01*
X97941943Y-56699648D02*
X97972344Y-56683293D01*
X97972344Y-56683293D02*
X98002500Y-56667238D01*
X98002500Y-56667238D02*
X98032347Y-56651526D01*
X98032347Y-56651526D02*
X98061821Y-56636202D01*
X98061821Y-56636202D02*
X98090860Y-56621309D01*
X98090860Y-56621309D02*
X98119399Y-56606891D01*
X98119399Y-56606891D02*
X98147376Y-56592991D01*
X98147376Y-56592991D02*
X98174727Y-56579653D01*
X98174727Y-56579653D02*
X98201387Y-56566920D01*
X98201387Y-56566920D02*
X98227295Y-56554837D01*
X98227295Y-56554837D02*
X98252386Y-56543447D01*
X98252386Y-56543447D02*
X98276597Y-56532793D01*
X98276597Y-56532793D02*
X98299865Y-56522919D01*
X98299865Y-56522919D02*
X98322125Y-56513869D01*
X98322125Y-56513869D02*
X98349265Y-56503144D01*
X98349265Y-56503144D02*
X98375800Y-56492751D01*
X98375800Y-56492751D02*
X98401770Y-56482682D01*
X98401770Y-56482682D02*
X98427218Y-56472928D01*
X98427218Y-56472928D02*
X98452183Y-56463481D01*
X98452183Y-56463481D02*
X98476707Y-56454332D01*
X98476707Y-56454332D02*
X98500830Y-56445473D01*
X98500830Y-56445473D02*
X98524594Y-56436896D01*
X98524594Y-56436896D02*
X98548038Y-56428591D01*
X98548038Y-56428591D02*
X98571204Y-56420552D01*
X98571204Y-56420552D02*
X98594133Y-56412768D01*
X98594133Y-56412768D02*
X98616866Y-56405233D01*
X98616866Y-56405233D02*
X98639443Y-56397936D01*
X98639443Y-56397936D02*
X98661905Y-56390871D01*
X98661905Y-56390871D02*
X98684294Y-56384029D01*
X98684294Y-56384029D02*
X98706649Y-56377401D01*
X98706649Y-56377401D02*
X98729012Y-56370979D01*
X98729012Y-56370979D02*
X98751424Y-56364754D01*
X98751424Y-56364754D02*
X98773925Y-56358718D01*
X98773925Y-56358718D02*
X98796557Y-56352863D01*
X98796557Y-56352863D02*
X98819360Y-56347180D01*
X98819360Y-56347180D02*
X98842375Y-56341661D01*
X98842375Y-56341661D02*
X98865643Y-56336297D01*
X98865643Y-56336297D02*
X98889204Y-56331081D01*
X98889204Y-56331081D02*
X98913100Y-56326003D01*
X98913100Y-56326003D02*
X98937371Y-56321055D01*
X98937371Y-56321055D02*
X98962059Y-56316229D01*
X98962059Y-56316229D02*
X98987204Y-56311516D01*
X98987204Y-56311516D02*
X99012847Y-56306909D01*
X99012847Y-56306909D02*
X99039028Y-56302398D01*
X99039028Y-56302398D02*
X99065789Y-56297975D01*
X99065789Y-56297975D02*
X99093171Y-56293632D01*
X99093171Y-56293632D02*
X99121213Y-56289360D01*
X99121213Y-56289360D02*
X99149958Y-56285151D01*
X99149958Y-56285151D02*
X99179447Y-56280997D01*
X99179447Y-56280997D02*
X99209718Y-56276889D01*
X99209718Y-56276889D02*
X99240815Y-56272819D01*
X99240815Y-56272819D02*
X99272777Y-56268778D01*
X99272777Y-56268778D02*
X99294598Y-56266171D01*
X99294598Y-56266171D02*
X99316840Y-56263719D01*
X99316840Y-56263719D02*
X99339489Y-56261419D01*
X99339489Y-56261419D02*
X99362530Y-56259267D01*
X99362530Y-56259267D02*
X99385950Y-56257262D01*
X99385950Y-56257262D02*
X99409735Y-56255399D01*
X99409735Y-56255399D02*
X99433869Y-56253675D01*
X99433869Y-56253675D02*
X99458339Y-56252088D01*
X99458339Y-56252088D02*
X99483131Y-56250635D01*
X99483131Y-56250635D02*
X99508231Y-56249311D01*
X99508231Y-56249311D02*
X99533623Y-56248114D01*
X99533623Y-56248114D02*
X99559295Y-56247041D01*
X99559295Y-56247041D02*
X99585232Y-56246089D01*
X99585232Y-56246089D02*
X99611419Y-56245255D01*
X99611419Y-56245255D02*
X99637842Y-56244535D01*
X99637842Y-56244535D02*
X99664488Y-56243926D01*
X99664488Y-56243926D02*
X99691342Y-56243426D01*
X99691342Y-56243426D02*
X99718390Y-56243030D01*
X99718390Y-56243030D02*
X99745617Y-56242737D01*
X99745617Y-56242737D02*
X99773010Y-56242542D01*
X99773010Y-56242542D02*
X99800554Y-56242443D01*
X99800554Y-56242443D02*
X99828235Y-56242437D01*
X99828235Y-56242437D02*
X99856039Y-56242520D01*
X99856039Y-56242520D02*
X99883951Y-56242689D01*
X99883951Y-56242689D02*
X99911958Y-56242941D01*
X99911958Y-56242941D02*
X99940045Y-56243274D01*
X99940045Y-56243274D02*
X99968198Y-56243683D01*
X99968198Y-56243683D02*
X99996403Y-56244166D01*
X99996403Y-56244166D02*
X100024645Y-56244720D01*
X100024645Y-56244720D02*
X100052911Y-56245342D01*
X100052911Y-56245342D02*
X100081186Y-56246027D01*
X100081186Y-56246027D02*
X100109456Y-56246774D01*
X100109456Y-56246774D02*
X100137707Y-56247580D01*
X100137707Y-56247580D02*
X100165924Y-56248440D01*
X100165924Y-56248440D02*
X100194093Y-56249352D01*
X100194093Y-56249352D02*
X100222201Y-56250312D01*
X100222201Y-56250312D02*
X100250233Y-56251319D01*
X100250233Y-56251319D02*
X100278174Y-56252368D01*
X100278174Y-56252368D02*
X100306011Y-56253456D01*
X100306011Y-56253456D02*
X100333730Y-56254580D01*
X100333730Y-56254580D02*
X100361315Y-56255738D01*
X100361315Y-56255738D02*
X100388754Y-56256925D01*
X100388754Y-56256925D02*
X100416031Y-56258139D01*
X100416031Y-56258139D02*
X100443133Y-56259377D01*
X100443133Y-56259377D02*
X100470045Y-56260636D01*
X100470045Y-56260636D02*
X100496753Y-56261912D01*
X100496753Y-56261912D02*
X100523243Y-56263202D01*
X100523243Y-56263202D02*
X100549501Y-56264504D01*
X100549501Y-56264504D02*
X100575512Y-56265813D01*
X100575512Y-56265813D02*
X100601263Y-56267128D01*
X100601263Y-56267128D02*
X100626738Y-56268444D01*
X100626738Y-56268444D02*
X100651925Y-56269759D01*
X100651925Y-56269759D02*
X100676808Y-56271069D01*
X100676808Y-56271069D02*
X100701374Y-56272372D01*
X100701374Y-56272372D02*
X100725608Y-56273664D01*
X100725608Y-56273664D02*
X100749496Y-56274943D01*
X100749496Y-56274943D02*
X100773024Y-56276204D01*
X100773024Y-56276204D02*
X100802984Y-56277894D01*
X100802984Y-56277894D02*
X100833683Y-56279783D01*
X100833683Y-56279783D02*
X100865057Y-56281862D01*
X100865057Y-56281862D02*
X100897040Y-56284120D01*
X100897040Y-56284120D02*
X100929569Y-56286544D01*
X100929569Y-56286544D02*
X100962577Y-56289125D01*
X100962577Y-56289125D02*
X100996000Y-56291852D01*
X100996000Y-56291852D02*
X101029773Y-56294713D01*
X101029773Y-56294713D02*
X101063831Y-56297697D01*
X101063831Y-56297697D02*
X101098109Y-56300794D01*
X101098109Y-56300794D02*
X101132542Y-56303993D01*
X101132542Y-56303993D02*
X101167065Y-56307282D01*
X101167065Y-56307282D02*
X101201613Y-56310651D01*
X101201613Y-56310651D02*
X101236121Y-56314089D01*
X101236121Y-56314089D02*
X101270524Y-56317585D01*
X101270524Y-56317585D02*
X101304757Y-56321127D01*
X101304757Y-56321127D02*
X101338756Y-56324706D01*
X101338756Y-56324706D02*
X101372455Y-56328309D01*
X101372455Y-56328309D02*
X101405789Y-56331927D01*
X101405789Y-56331927D02*
X101438693Y-56335547D01*
X101438693Y-56335547D02*
X101471103Y-56339160D01*
X101471103Y-56339160D02*
X101502953Y-56342754D01*
X101502953Y-56342754D02*
X101534178Y-56346318D01*
X101534178Y-56346318D02*
X101564714Y-56349841D01*
X101564714Y-56349841D02*
X101594496Y-56353313D01*
X101594496Y-56353313D02*
X101623458Y-56356722D01*
X101623458Y-56356722D02*
X101651535Y-56360058D01*
X101651535Y-56360058D02*
X101678663Y-56363309D01*
X101678663Y-56363309D02*
X101704777Y-56366465D01*
X101704777Y-56366465D02*
X101729812Y-56369514D01*
X101729812Y-56369514D02*
X101753702Y-56372445D01*
X101753702Y-56372445D02*
X101776382Y-56375249D01*
X101776382Y-56375249D02*
X101797789Y-56377913D01*
X101797789Y-56377913D02*
X101817856Y-56380427D01*
X101817856Y-56380427D02*
X101836520Y-56382780D01*
X101836520Y-56382780D02*
X101853714Y-56384961D01*
X101853714Y-56384961D02*
X101869374Y-56386958D01*
X101869374Y-56386958D02*
X101883435Y-56388762D01*
X101883435Y-56388762D02*
X101895832Y-56390361D01*
X101895832Y-56390361D02*
X101906500Y-56391744D01*
X101906500Y-56391744D02*
X101915374Y-56392900D01*
X101915374Y-56392900D02*
X101922389Y-56393818D01*
X101922389Y-56393818D02*
X101927480Y-56394487D01*
X101927480Y-56394487D02*
X101930582Y-56394897D01*
X101930582Y-56394897D02*
X101931631Y-56395036D01*
X101612271Y-56692113D02*
X101612416Y-56692893D01*
X101612416Y-56692893D02*
X101612797Y-56695197D01*
X101612797Y-56695197D02*
X101613332Y-56698965D01*
X101613332Y-56698965D02*
X101613941Y-56704140D01*
X101613941Y-56704140D02*
X101614541Y-56710665D01*
X101614541Y-56710665D02*
X101615052Y-56718481D01*
X101615052Y-56718481D02*
X101615391Y-56727532D01*
X101615391Y-56727532D02*
X101615479Y-56737758D01*
X101615479Y-56737758D02*
X101615232Y-56749103D01*
X101615232Y-56749103D02*
X101614571Y-56761508D01*
X101614571Y-56761508D02*
X101613413Y-56774916D01*
X101613413Y-56774916D02*
X101611677Y-56789269D01*
X101611677Y-56789269D02*
X101609282Y-56804510D01*
X101609282Y-56804510D02*
X101606147Y-56820580D01*
X101606147Y-56820580D02*
X101602190Y-56837421D01*
X101602190Y-56837421D02*
X101597329Y-56854977D01*
X101597329Y-56854977D02*
X101591484Y-56873189D01*
X101591484Y-56873189D02*
X101584573Y-56891999D01*
X101584573Y-56891999D02*
X101576515Y-56911350D01*
X101576515Y-56911350D02*
X101567228Y-56931184D01*
X101567228Y-56931184D02*
X101556630Y-56951443D01*
X101556630Y-56951443D02*
X101544642Y-56972069D01*
X101544642Y-56972069D02*
X101531181Y-56993005D01*
X101531181Y-56993005D02*
X101516165Y-57014193D01*
X101516165Y-57014193D02*
X101499514Y-57035575D01*
X101499514Y-57035575D02*
X101481146Y-57057093D01*
X101481146Y-57057093D02*
X101460980Y-57078690D01*
X101460980Y-57078690D02*
X101438934Y-57100307D01*
X101438934Y-57100307D02*
X101414928Y-57121888D01*
X101414928Y-57121888D02*
X101388879Y-57143374D01*
X101388879Y-57143374D02*
X101360706Y-57164707D01*
X101360706Y-57164707D02*
X101330328Y-57185830D01*
X101330328Y-57185830D02*
X101297664Y-57206685D01*
X101297664Y-57206685D02*
X101262632Y-57227214D01*
X101262632Y-57227214D02*
X101225151Y-57247360D01*
X101225151Y-57247360D02*
X101185139Y-57267064D01*
X101185139Y-57267064D02*
X101142516Y-57286270D01*
X101142516Y-57286270D02*
X101127332Y-57292543D01*
X101127332Y-57292543D02*
X101111631Y-57298509D01*
X101111631Y-57298509D02*
X101095420Y-57304174D01*
X101095420Y-57304174D02*
X101078709Y-57309541D01*
X101078709Y-57309541D02*
X101061507Y-57314617D01*
X101061507Y-57314617D02*
X101043824Y-57319405D01*
X101043824Y-57319405D02*
X101025668Y-57323910D01*
X101025668Y-57323910D02*
X101007049Y-57328137D01*
X101007049Y-57328137D02*
X100987975Y-57332091D01*
X100987975Y-57332091D02*
X100968457Y-57335777D01*
X100968457Y-57335777D02*
X100948502Y-57339199D01*
X100948502Y-57339199D02*
X100928121Y-57342363D01*
X100928121Y-57342363D02*
X100907323Y-57345272D01*
X100907323Y-57345272D02*
X100886116Y-57347933D01*
X100886116Y-57347933D02*
X100864510Y-57350349D01*
X100864510Y-57350349D02*
X100842514Y-57352525D01*
X100842514Y-57352525D02*
X100820137Y-57354466D01*
X100820137Y-57354466D02*
X100797388Y-57356177D01*
X100797388Y-57356177D02*
X100774277Y-57357663D01*
X100774277Y-57357663D02*
X100750812Y-57358929D01*
X100750812Y-57358929D02*
X100727004Y-57359979D01*
X100727004Y-57359979D02*
X100702860Y-57360817D01*
X100702860Y-57360817D02*
X100678390Y-57361450D01*
X100678390Y-57361450D02*
X100653604Y-57361881D01*
X100653604Y-57361881D02*
X100628510Y-57362116D01*
X100628510Y-57362116D02*
X100603118Y-57362158D01*
X100603118Y-57362158D02*
X100577437Y-57362014D01*
X100577437Y-57362014D02*
X100551476Y-57361687D01*
X100551476Y-57361687D02*
X100525244Y-57361183D01*
X100525244Y-57361183D02*
X100498750Y-57360507D01*
X100498750Y-57360507D02*
X100472004Y-57359662D01*
X100472004Y-57359662D02*
X100445014Y-57358654D01*
X100445014Y-57358654D02*
X100417791Y-57357488D01*
X100417791Y-57357488D02*
X100390342Y-57356168D01*
X100390342Y-57356168D02*
X100362678Y-57354699D01*
X100362678Y-57354699D02*
X100334806Y-57353087D01*
X100334806Y-57353087D02*
X100306738Y-57351335D01*
X100306738Y-57351335D02*
X100278481Y-57349449D01*
X100278481Y-57349449D02*
X100250045Y-57347433D01*
X100250045Y-57347433D02*
X100221439Y-57345292D01*
X100221439Y-57345292D02*
X100192672Y-57343031D01*
X100192672Y-57343031D02*
X100163753Y-57340655D01*
X100163753Y-57340655D02*
X100134692Y-57338168D01*
X100134692Y-57338168D02*
X100105498Y-57335576D01*
X100105498Y-57335576D02*
X100076179Y-57332882D01*
X100076179Y-57332882D02*
X100046746Y-57330093D01*
X100046746Y-57330093D02*
X100017207Y-57327212D01*
X100017207Y-57327212D02*
X99987571Y-57324244D01*
X99987571Y-57324244D02*
X99957847Y-57321194D01*
X99957847Y-57321194D02*
X99928046Y-57318068D01*
X99928046Y-57318068D02*
X99898175Y-57314869D01*
X99898175Y-57314869D02*
X99868244Y-57311603D01*
X99868244Y-57311603D02*
X99838263Y-57308273D01*
X99838263Y-57308273D02*
X99808239Y-57304886D01*
X99808239Y-57304886D02*
X99778184Y-57301446D01*
X99778184Y-57301446D02*
X99748105Y-57297958D01*
X99748105Y-57297958D02*
X99718012Y-57294425D01*
X99718012Y-57294425D02*
X99687914Y-57290854D01*
X99687914Y-57290854D02*
X99657820Y-57287250D01*
X99657820Y-57287250D02*
X99627740Y-57283615D01*
X99627740Y-57283615D02*
X99597682Y-57279957D01*
X99597682Y-57279957D02*
X99567656Y-57276278D01*
X99567656Y-57276278D02*
X99537670Y-57272585D01*
X99537670Y-57272585D02*
X99507735Y-57268882D01*
X99507735Y-57268882D02*
X99477859Y-57265173D01*
X99477859Y-57265173D02*
X99448052Y-57261464D01*
X99448052Y-57261464D02*
X99418322Y-57257758D01*
X99418322Y-57257758D02*
X99388678Y-57254062D01*
X99388678Y-57254062D02*
X99359131Y-57250380D01*
X99359131Y-57250380D02*
X99329688Y-57246717D01*
X99329688Y-57246717D02*
X99300360Y-57243076D01*
X99300360Y-57243076D02*
X99271156Y-57239464D01*
X99271156Y-57239464D02*
X99242083Y-57235885D01*
X99242083Y-57235885D02*
X99213153Y-57232343D01*
X99213153Y-57232343D02*
X99184373Y-57228844D01*
X99184373Y-57228844D02*
X99155754Y-57225392D01*
X99155754Y-57225392D02*
X99127304Y-57221993D01*
X99127304Y-57221993D02*
X99099032Y-57218650D01*
X99099032Y-57218650D02*
X99070948Y-57215369D01*
X99070948Y-57215369D02*
X99043060Y-57212154D01*
X99043060Y-57212154D02*
X99015379Y-57209010D01*
X99015379Y-57209010D02*
X98987912Y-57205942D01*
X98987912Y-57205942D02*
X98960670Y-57202955D01*
X98960670Y-57202955D02*
X98933661Y-57200054D01*
X98933661Y-57200054D02*
X98906895Y-57197242D01*
X98906895Y-57197242D02*
X98880380Y-57194526D01*
X98880380Y-57194526D02*
X98854127Y-57191910D01*
X98854127Y-57191910D02*
X98828143Y-57189398D01*
X98828143Y-57189398D02*
X98802439Y-57186996D01*
X98802439Y-57186996D02*
X98777023Y-57184708D01*
X98777023Y-57184708D02*
X98751905Y-57182539D01*
X98751905Y-57182539D02*
X98727094Y-57180494D01*
X98727094Y-57180494D02*
X98702598Y-57178578D01*
X98702598Y-57178578D02*
X98678428Y-57176794D01*
X98678428Y-57176794D02*
X98654591Y-57175149D01*
X98654591Y-57175149D02*
X98631099Y-57173647D01*
X98631099Y-57173647D02*
X98607959Y-57172292D01*
X98607959Y-57172292D02*
X98585180Y-57171090D01*
X98585180Y-57171090D02*
X98562773Y-57170046D01*
X98562773Y-57170046D02*
X98540746Y-57169163D01*
X98540746Y-57169163D02*
X98519107Y-57168447D01*
X98519107Y-57168447D02*
X98497868Y-57167902D01*
X98497868Y-57167902D02*
X98477036Y-57167534D01*
X98477036Y-57167534D02*
X98456621Y-57167348D01*
X98456621Y-57167348D02*
X98436631Y-57167347D01*
X98436631Y-57167347D02*
X98417077Y-57167537D01*
X98417077Y-57167537D02*
X98397967Y-57167922D01*
X98397967Y-57167922D02*
X98379311Y-57168508D01*
X98379311Y-57168508D02*
X98361117Y-57169298D01*
X98361117Y-57169298D02*
X98320046Y-57171687D01*
X98320046Y-57171687D02*
X98280118Y-57174682D01*
X98280118Y-57174682D02*
X98241306Y-57178251D01*
X98241306Y-57178251D02*
X98203586Y-57182361D01*
X98203586Y-57182361D02*
X98166932Y-57186980D01*
X98166932Y-57186980D02*
X98131318Y-57192076D01*
X98131318Y-57192076D02*
X98096718Y-57197616D01*
X98096718Y-57197616D02*
X98063107Y-57203568D01*
X98063107Y-57203568D02*
X98030460Y-57209899D01*
X98030460Y-57209899D02*
X97998750Y-57216578D01*
X97998750Y-57216578D02*
X97967952Y-57223573D01*
X97967952Y-57223573D02*
X97938041Y-57230850D01*
X97938041Y-57230850D02*
X97908991Y-57238377D01*
X97908991Y-57238377D02*
X97880776Y-57246122D01*
X97880776Y-57246122D02*
X97853371Y-57254054D01*
X97853371Y-57254054D02*
X97826750Y-57262138D01*
X97826750Y-57262138D02*
X97800888Y-57270344D01*
X97800888Y-57270344D02*
X97775759Y-57278639D01*
X97775759Y-57278639D02*
X97751337Y-57286990D01*
X97751337Y-57286990D02*
X97727596Y-57295365D01*
X97727596Y-57295365D02*
X97704512Y-57303732D01*
X97704512Y-57303732D02*
X97682059Y-57312059D01*
X97682059Y-57312059D02*
X97660210Y-57320313D01*
X97660210Y-57320313D02*
X97638941Y-57328462D01*
X97638941Y-57328462D02*
X97618226Y-57336473D01*
X97618226Y-57336473D02*
X97598039Y-57344315D01*
X97598039Y-57344315D02*
X97578354Y-57351954D01*
X97578354Y-57351954D02*
X97559146Y-57359359D01*
X97559146Y-57359359D02*
X97540390Y-57366498D01*
X97540390Y-57366498D02*
X97522060Y-57373337D01*
X97522060Y-57373337D02*
X97504129Y-57379845D01*
X97504129Y-57379845D02*
X97486574Y-57385989D01*
X97486574Y-57385989D02*
X97469367Y-57391737D01*
X97469367Y-57391737D02*
X97452484Y-57397057D01*
X97452484Y-57397057D02*
X97435899Y-57401917D01*
X97435899Y-57401917D02*
X97419585Y-57406283D01*
X97419585Y-57406283D02*
X97403519Y-57410124D01*
X97403519Y-57410124D02*
X97387673Y-57413407D01*
X97387673Y-57413407D02*
X97372023Y-57416101D01*
X97372023Y-57416101D02*
X97356543Y-57418172D01*
X97356543Y-57418172D02*
X97341207Y-57419588D01*
X97341207Y-57419588D02*
X97325989Y-57420318D01*
X97325989Y-57420318D02*
X97310865Y-57420329D01*
X97310865Y-57420329D02*
X97295808Y-57419587D01*
X97295808Y-57419587D02*
X97280792Y-57418062D01*
X97280792Y-57418062D02*
X97265793Y-57415721D01*
X97265793Y-57415721D02*
X97250785Y-57412532D01*
X97250785Y-57412532D02*
X97232429Y-57406113D01*
X97232429Y-57406113D02*
X97215411Y-57396263D01*
X97215411Y-57396263D02*
X97199691Y-57383315D01*
X97199691Y-57383315D02*
X97185230Y-57367598D01*
X97185230Y-57367598D02*
X97171988Y-57349444D01*
X97171988Y-57349444D02*
X97159927Y-57329183D01*
X97159927Y-57329183D02*
X97149007Y-57307146D01*
X97149007Y-57307146D02*
X97139189Y-57283664D01*
X97139189Y-57283664D02*
X97130432Y-57259069D01*
X97130432Y-57259069D02*
X97122699Y-57233690D01*
X97122699Y-57233690D02*
X97115949Y-57207859D01*
X97115949Y-57207859D02*
X97110143Y-57181906D01*
X97110143Y-57181906D02*
X97105242Y-57156163D01*
X97105242Y-57156163D02*
X97101206Y-57130960D01*
X97101206Y-57130960D02*
X97097997Y-57106629D01*
X97097997Y-57106629D02*
X97095574Y-57083499D01*
X97095574Y-57083499D02*
X97093898Y-57061902D01*
X97093898Y-57061902D02*
X97092931Y-57042169D01*
X97092931Y-57042169D02*
X97092632Y-57024631D01*
X97092632Y-57024631D02*
X97092962Y-57009618D01*
X97092962Y-57009618D02*
X97093968Y-56993970D01*
X97093968Y-56993970D02*
X97095564Y-56977491D01*
X97095564Y-56977491D02*
X97097733Y-56960209D01*
X97097733Y-56960209D02*
X97100457Y-56942153D01*
X97100457Y-56942153D02*
X97103719Y-56923350D01*
X97103719Y-56923350D02*
X97107503Y-56903830D01*
X97107503Y-56903830D02*
X97111791Y-56883620D01*
X97111791Y-56883620D02*
X97116565Y-56862749D01*
X97116565Y-56862749D02*
X97121809Y-56841245D01*
X97121809Y-56841245D02*
X97127506Y-56819136D01*
X97127506Y-56819136D02*
X97133638Y-56796452D01*
X97133638Y-56796452D02*
X97140188Y-56773219D01*
X97140188Y-56773219D02*
X97147139Y-56749466D01*
X97147139Y-56749466D02*
X97154474Y-56725223D01*
X97154474Y-56725223D02*
X97162176Y-56700516D01*
X97162176Y-56700516D02*
X97170227Y-56675375D01*
X97170227Y-56675375D02*
X97178610Y-56649827D01*
X97178610Y-56649827D02*
X97187308Y-56623901D01*
X97187308Y-56623901D02*
X97196304Y-56597625D01*
X97196304Y-56597625D02*
X97205581Y-56571028D01*
X97205581Y-56571028D02*
X97215121Y-56544138D01*
X97215121Y-56544138D02*
X97224908Y-56516982D01*
X97224908Y-56516982D02*
X97234923Y-56489591D01*
X97234923Y-56489591D02*
X97245151Y-56461991D01*
X97245151Y-56461991D02*
X97255573Y-56434211D01*
X97255573Y-56434211D02*
X97266174Y-56406279D01*
X97266174Y-56406279D02*
X97276934Y-56378225D01*
X97276934Y-56378225D02*
X97287838Y-56350075D01*
X97287838Y-56350075D02*
X97298868Y-56321859D01*
X97298868Y-56321859D02*
X97310007Y-56293604D01*
X97310007Y-56293604D02*
X97321237Y-56265339D01*
X97321237Y-56265339D02*
X97332542Y-56237092D01*
X97332542Y-56237092D02*
X97343905Y-56208892D01*
X97343905Y-56208892D02*
X97355307Y-56180767D01*
X97355307Y-56180767D02*
X97366733Y-56152745D01*
X97366733Y-56152745D02*
X97378165Y-56124855D01*
X97378165Y-56124855D02*
X97389585Y-56097124D01*
X97389585Y-56097124D02*
X97400976Y-56069582D01*
X97400976Y-56069582D02*
X97412322Y-56042256D01*
X97412322Y-56042256D02*
X97422186Y-56018766D01*
X97422186Y-56018766D02*
X97432244Y-55995252D01*
X97432244Y-55995252D02*
X97442491Y-55971718D01*
X97442491Y-55971718D02*
X97452921Y-55948168D01*
X97452921Y-55948168D02*
X97463528Y-55924608D01*
X97463528Y-55924608D02*
X97474307Y-55901040D01*
X97474307Y-55901040D02*
X97485251Y-55877471D01*
X97485251Y-55877471D02*
X97496356Y-55853904D01*
X97496356Y-55853904D02*
X97507615Y-55830343D01*
X97507615Y-55830343D02*
X97519023Y-55806795D01*
X97519023Y-55806795D02*
X97530574Y-55783262D01*
X97530574Y-55783262D02*
X97542262Y-55759750D01*
X97542262Y-55759750D02*
X97554082Y-55736262D01*
X97554082Y-55736262D02*
X97566027Y-55712805D01*
X97566027Y-55712805D02*
X97578093Y-55689381D01*
X97578093Y-55689381D02*
X97590272Y-55665996D01*
X97590272Y-55665996D02*
X97602561Y-55642654D01*
X97602561Y-55642654D02*
X97614952Y-55619359D01*
X97614952Y-55619359D02*
X97627441Y-55596117D01*
X97627441Y-55596117D02*
X97640020Y-55572931D01*
X97640020Y-55572931D02*
X97652686Y-55549806D01*
X97652686Y-55549806D02*
X97665432Y-55526747D01*
X97665432Y-55526747D02*
X97678252Y-55503758D01*
X97678252Y-55503758D02*
X97691140Y-55480844D01*
X97691140Y-55480844D02*
X97704091Y-55458009D01*
X97704091Y-55458009D02*
X97717100Y-55435257D01*
X97717100Y-55435257D02*
X97730159Y-55412594D01*
X97730159Y-55412594D02*
X97743265Y-55390023D01*
X97743265Y-55390023D02*
X97756410Y-55367550D01*
X97756410Y-55367550D02*
X97769590Y-55345178D01*
X97769590Y-55345178D02*
X97782798Y-55322913D01*
X97782798Y-55322913D02*
X97796029Y-55300758D01*
X97796029Y-55300758D02*
X97809276Y-55278719D01*
X97809276Y-55278719D02*
X97822536Y-55256800D01*
X97822536Y-55256800D02*
X97835800Y-55235004D01*
X97835800Y-55235004D02*
X97849065Y-55213338D01*
X97849065Y-55213338D02*
X97862324Y-55191805D01*
X97862324Y-55191805D02*
X97875571Y-55170410D01*
X97875571Y-55170410D02*
X97888801Y-55149157D01*
X97888801Y-55149157D02*
X97902008Y-55128051D01*
X97902008Y-55128051D02*
X97915186Y-55107096D01*
X97915186Y-55107096D02*
X97928329Y-55086298D01*
X97928329Y-55086298D02*
X97941433Y-55065659D01*
X97941433Y-55065659D02*
X97954490Y-55045186D01*
X97954490Y-55045186D02*
X97968637Y-55022897D01*
X97968637Y-55022897D02*
X97982776Y-55000322D01*
X97982776Y-55000322D02*
X97996910Y-54977479D01*
X97996910Y-54977479D02*
X98011039Y-54954386D01*
X98011039Y-54954386D02*
X98025166Y-54931063D01*
X98025166Y-54931063D02*
X98039292Y-54907528D01*
X98039292Y-54907528D02*
X98053418Y-54883800D01*
X98053418Y-54883800D02*
X98067547Y-54859897D01*
X98067547Y-54859897D02*
X98081680Y-54835838D01*
X98081680Y-54835838D02*
X98095819Y-54811641D01*
X98095819Y-54811641D02*
X98109965Y-54787325D01*
X98109965Y-54787325D02*
X98124121Y-54762909D01*
X98124121Y-54762909D02*
X98138287Y-54738412D01*
X98138287Y-54738412D02*
X98152465Y-54713852D01*
X98152465Y-54713852D02*
X98166658Y-54689247D01*
X98166658Y-54689247D02*
X98180866Y-54664616D01*
X98180866Y-54664616D02*
X98195092Y-54639978D01*
X98195092Y-54639978D02*
X98209336Y-54615352D01*
X98209336Y-54615352D02*
X98223602Y-54590756D01*
X98223602Y-54590756D02*
X98237889Y-54566209D01*
X98237889Y-54566209D02*
X98252201Y-54541729D01*
X98252201Y-54541729D02*
X98266539Y-54517335D01*
X98266539Y-54517335D02*
X98280904Y-54493046D01*
X98280904Y-54493046D02*
X98295297Y-54468880D01*
X98295297Y-54468880D02*
X98309722Y-54444856D01*
X98309722Y-54444856D02*
X98324179Y-54420992D01*
X98324179Y-54420992D02*
X98338670Y-54397307D01*
X98338670Y-54397307D02*
X98353196Y-54373821D01*
X98353196Y-54373821D02*
X98367760Y-54350550D01*
X98367760Y-54350550D02*
X98382363Y-54327515D01*
X98382363Y-54327515D02*
X98397007Y-54304733D01*
X98397007Y-54304733D02*
X98411692Y-54282223D01*
X98411692Y-54282223D02*
X98426422Y-54260005D01*
X98426422Y-54260005D02*
X98441198Y-54238095D01*
X98441198Y-54238095D02*
X98456020Y-54216514D01*
X98456020Y-54216514D02*
X98470892Y-54195280D01*
X98470892Y-54195280D02*
X98485814Y-54174411D01*
X98485814Y-54174411D02*
X98500789Y-54153926D01*
X98500789Y-54153926D02*
X98515818Y-54133844D01*
X98515818Y-54133844D02*
X98530902Y-54114183D01*
X98530902Y-54114183D02*
X98546043Y-54094961D01*
X98546043Y-54094961D02*
X98561244Y-54076199D01*
X98561244Y-54076199D02*
X98576505Y-54057913D01*
X98576505Y-54057913D02*
X98591828Y-54040123D01*
X98591828Y-54040123D02*
X98607215Y-54022848D01*
X98607215Y-54022848D02*
X98622668Y-54006105D01*
X98622668Y-54006105D02*
X98638188Y-53989914D01*
X98638188Y-53989914D02*
X98653777Y-53974294D01*
X98653777Y-53974294D02*
X98669436Y-53959262D01*
X98669436Y-53959262D02*
X98685168Y-53944838D01*
X98685168Y-53944838D02*
X98700973Y-53931039D01*
X98700973Y-53931039D02*
X98716854Y-53917886D01*
X98716854Y-53917886D02*
X98732813Y-53905396D01*
X98732813Y-53905396D02*
X98748850Y-53893588D01*
X98748850Y-53893588D02*
X98764967Y-53882480D01*
X98764967Y-53882480D02*
X98781167Y-53872092D01*
X98781167Y-53872092D02*
X98797451Y-53862442D01*
X98797451Y-53862442D02*
X98831114Y-53843490D01*
X98831114Y-53843490D02*
X98863229Y-53825791D01*
X98863229Y-53825791D02*
X98893890Y-53809335D01*
X98893890Y-53809335D02*
X98923188Y-53794112D01*
X98923188Y-53794112D02*
X98951214Y-53780113D01*
X98951214Y-53780113D02*
X98978063Y-53767327D01*
X98978063Y-53767327D02*
X99003824Y-53755746D01*
X99003824Y-53755746D02*
X99028590Y-53745360D01*
X99028590Y-53745360D02*
X99052453Y-53736159D01*
X99052453Y-53736159D02*
X99075505Y-53728133D01*
X99075505Y-53728133D02*
X99097839Y-53721272D01*
X99097839Y-53721272D02*
X99119545Y-53715568D01*
X99119545Y-53715568D02*
X99140716Y-53711010D01*
X99140716Y-53711010D02*
X99161445Y-53707590D01*
X99161445Y-53707590D02*
X99181822Y-53705296D01*
X99181822Y-53705296D02*
X99201941Y-53704119D01*
X99201941Y-53704119D02*
X99221892Y-53704051D01*
X99221892Y-53704051D02*
X99241768Y-53705081D01*
X99241768Y-53705081D02*
X99261662Y-53707199D01*
X99261662Y-53707199D02*
X99281664Y-53710397D01*
X99281664Y-53710397D02*
X99301867Y-53714663D01*
X99301867Y-53714663D02*
X99322363Y-53719989D01*
X99322363Y-53719989D02*
X99343244Y-53726366D01*
X99343244Y-53726366D02*
X99364602Y-53733782D01*
X99364602Y-53733782D02*
X99386528Y-53742229D01*
X99386528Y-53742229D02*
X99409116Y-53751698D01*
X99409116Y-53751698D02*
X99432456Y-53762177D01*
X99432456Y-53762177D02*
X99451873Y-53771786D01*
X99451873Y-53771786D02*
X99471237Y-53782606D01*
X99471237Y-53782606D02*
X99490511Y-53794581D01*
X99490511Y-53794581D02*
X99509654Y-53807656D01*
X99509654Y-53807656D02*
X99528628Y-53821778D01*
X99528628Y-53821778D02*
X99547395Y-53836891D01*
X99547395Y-53836891D02*
X99565915Y-53852941D01*
X99565915Y-53852941D02*
X99584150Y-53869872D01*
X99584150Y-53869872D02*
X99602060Y-53887630D01*
X99602060Y-53887630D02*
X99619607Y-53906161D01*
X99619607Y-53906161D02*
X99636752Y-53925408D01*
X99636752Y-53925408D02*
X99653456Y-53945319D01*
X99653456Y-53945319D02*
X99669680Y-53965837D01*
X99669680Y-53965837D02*
X99685385Y-53986908D01*
X99685385Y-53986908D02*
X99700532Y-54008477D01*
X99700532Y-54008477D02*
X99715084Y-54030490D01*
X99715084Y-54030490D02*
X99728999Y-54052891D01*
X99728999Y-54052891D02*
X99742241Y-54075626D01*
X99742241Y-54075626D02*
X99754769Y-54098641D01*
X99754769Y-54098641D02*
X99766545Y-54121879D01*
X99766545Y-54121879D02*
X99777530Y-54145287D01*
X99777530Y-54145287D02*
X99787686Y-54168810D01*
X99787686Y-54168810D02*
X99796973Y-54192393D01*
X99796973Y-54192393D02*
X99805352Y-54215981D01*
X99805352Y-54215981D02*
X99812785Y-54239519D01*
X99812785Y-54239519D02*
X99819233Y-54262953D01*
X99819233Y-54262953D02*
X99824656Y-54286227D01*
X99824656Y-54286227D02*
X99829017Y-54309288D01*
X99829017Y-54309288D02*
X99832275Y-54332080D01*
X99832275Y-54332080D02*
X99834393Y-54354548D01*
X99834393Y-54354548D02*
X99835331Y-54376638D01*
X99835331Y-54376638D02*
X99835051Y-54398295D01*
X99835051Y-54398295D02*
X99833513Y-54419464D01*
X99833513Y-54419464D02*
X99830703Y-54436911D01*
X99830703Y-54436911D02*
X99826134Y-54452994D01*
X99826134Y-54452994D02*
X99819914Y-54467794D01*
X99819914Y-54467794D02*
X99812154Y-54481390D01*
X99812154Y-54481390D02*
X99802962Y-54493862D01*
X99802962Y-54493862D02*
X99792448Y-54505291D01*
X99792448Y-54505291D02*
X99780723Y-54515757D01*
X99780723Y-54515757D02*
X99767895Y-54525341D01*
X99767895Y-54525341D02*
X99754074Y-54534121D01*
X99754074Y-54534121D02*
X99739370Y-54542180D01*
X99739370Y-54542180D02*
X99723892Y-54549596D01*
X99723892Y-54549596D02*
X99707749Y-54556450D01*
X99707749Y-54556450D02*
X99691052Y-54562822D01*
X99691052Y-54562822D02*
X99673910Y-54568793D01*
X99673910Y-54568793D02*
X99656433Y-54574442D01*
X99656433Y-54574442D02*
X99638730Y-54579850D01*
X99638730Y-54579850D02*
X99620910Y-54585096D01*
X99620910Y-54585096D02*
X99603084Y-54590262D01*
X99603084Y-54590262D02*
X99585360Y-54595428D01*
X99585360Y-54595428D02*
X99567849Y-54600672D01*
X99567849Y-54600672D02*
X99550660Y-54606077D01*
X99550660Y-54606077D02*
X99533903Y-54611721D01*
X99533903Y-54611721D02*
X99517686Y-54617686D01*
X99517686Y-54617686D02*
X99502121Y-54624050D01*
X99502121Y-54624050D02*
X99487315Y-54630895D01*
X99487315Y-54630895D02*
X99473380Y-54638301D01*
X99473380Y-54638301D02*
X99460424Y-54646348D01*
X99460424Y-54646348D02*
X99448556Y-54655116D01*
X99448556Y-54655116D02*
X99437888Y-54664685D01*
X99437888Y-54664685D02*
X99428528Y-54675136D01*
X99428528Y-54675136D02*
X99420585Y-54686548D01*
X99420585Y-54686548D02*
X99414170Y-54699002D01*
X99414170Y-54699002D02*
X99409392Y-54712578D01*
X99409392Y-54712578D02*
X99406360Y-54727356D01*
X99406360Y-54727356D02*
X99405184Y-54743417D01*
X99405184Y-54743417D02*
X99405974Y-54760840D01*
X99405974Y-54760840D02*
X99408839Y-54779707D01*
X99408839Y-54779707D02*
X99413889Y-54800096D01*
X99413889Y-54800096D02*
X99416446Y-54806562D01*
X99416446Y-54806562D02*
X99420573Y-54813895D01*
X99420573Y-54813895D02*
X99426226Y-54822069D01*
X99426226Y-54822069D02*
X99433359Y-54831056D01*
X99433359Y-54831056D02*
X99441929Y-54840831D01*
X99441929Y-54840831D02*
X99451892Y-54851367D01*
X99451892Y-54851367D02*
X99463203Y-54862638D01*
X99463203Y-54862638D02*
X99475819Y-54874618D01*
X99475819Y-54874618D02*
X99489694Y-54887281D01*
X99489694Y-54887281D02*
X99504784Y-54900599D01*
X99504784Y-54900599D02*
X99521046Y-54914546D01*
X99521046Y-54914546D02*
X99538435Y-54929097D01*
X99538435Y-54929097D02*
X99556907Y-54944225D01*
X99556907Y-54944225D02*
X99576417Y-54959904D01*
X99576417Y-54959904D02*
X99596921Y-54976107D01*
X99596921Y-54976107D02*
X99618376Y-54992808D01*
X99618376Y-54992808D02*
X99640736Y-55009980D01*
X99640736Y-55009980D02*
X99663958Y-55027598D01*
X99663958Y-55027598D02*
X99687996Y-55045635D01*
X99687996Y-55045635D02*
X99712808Y-55064064D01*
X99712808Y-55064064D02*
X99738349Y-55082860D01*
X99738349Y-55082860D02*
X99764574Y-55101996D01*
X99764574Y-55101996D02*
X99791439Y-55121445D01*
X99791439Y-55121445D02*
X99818900Y-55141181D01*
X99818900Y-55141181D02*
X99846912Y-55161179D01*
X99846912Y-55161179D02*
X99875432Y-55181411D01*
X99875432Y-55181411D02*
X99904415Y-55201851D01*
X99904415Y-55201851D02*
X99933817Y-55222473D01*
X99933817Y-55222473D02*
X99963593Y-55243251D01*
X99963593Y-55243251D02*
X99993700Y-55264158D01*
X99993700Y-55264158D02*
X100024093Y-55285168D01*
X100024093Y-55285168D02*
X100054728Y-55306255D01*
X100054728Y-55306255D02*
X100085560Y-55327392D01*
X100085560Y-55327392D02*
X100116546Y-55348552D01*
X100116546Y-55348552D02*
X100147640Y-55369711D01*
X100147640Y-55369711D02*
X100178800Y-55390840D01*
X100178800Y-55390840D02*
X100209980Y-55411915D01*
X100209980Y-55411915D02*
X100241136Y-55432908D01*
X100241136Y-55432908D02*
X100272224Y-55453794D01*
X100272224Y-55453794D02*
X100303200Y-55474545D01*
X100303200Y-55474545D02*
X100334019Y-55495136D01*
X100334019Y-55495136D02*
X100364637Y-55515540D01*
X100364637Y-55515540D02*
X100395011Y-55535731D01*
X100395011Y-55535731D02*
X100425095Y-55555683D01*
X100425095Y-55555683D02*
X100454845Y-55575369D01*
X100454845Y-55575369D02*
X100484218Y-55594763D01*
X100484218Y-55594763D02*
X100513169Y-55613838D01*
X100513169Y-55613838D02*
X100541653Y-55632569D01*
X100541653Y-55632569D02*
X100569627Y-55650928D01*
X100569627Y-55650928D02*
X100597045Y-55668891D01*
X100597045Y-55668891D02*
X100623865Y-55686429D01*
X100623865Y-55686429D02*
X100650041Y-55703517D01*
X100650041Y-55703517D02*
X100675530Y-55720129D01*
X100675530Y-55720129D02*
X100700286Y-55736238D01*
X100700286Y-55736238D02*
X100724267Y-55751818D01*
X100724267Y-55751818D02*
X100747427Y-55766843D01*
X100747427Y-55766843D02*
X100769722Y-55781286D01*
X100769722Y-55781286D02*
X100791108Y-55795120D01*
X100791108Y-55795120D02*
X100811541Y-55808321D01*
X100811541Y-55808321D02*
X100830977Y-55820860D01*
X100830977Y-55820860D02*
X100849371Y-55832712D01*
X100849371Y-55832712D02*
X100866678Y-55843851D01*
X100866678Y-55843851D02*
X100882856Y-55854250D01*
X100882856Y-55854250D02*
X100897859Y-55863884D01*
X100897859Y-55863884D02*
X100911643Y-55872724D01*
X100911643Y-55872724D02*
X100924164Y-55880746D01*
X100924164Y-55880746D02*
X100935378Y-55887923D01*
X100935378Y-55887923D02*
X100945240Y-55894228D01*
X100945240Y-55894228D02*
X100953707Y-55899635D01*
X100953707Y-55899635D02*
X100960733Y-55904119D01*
X100960733Y-55904119D02*
X100966275Y-55907652D01*
X100966275Y-55907652D02*
X100970288Y-55910208D01*
X100970288Y-55910208D02*
X100972729Y-55911761D01*
X100972729Y-55911761D02*
X100973552Y-55912284D01*
X97963170Y-54575004D02*
X97961578Y-54574833D01*
X97961578Y-54574833D02*
X97956889Y-54574317D01*
X97956889Y-54574317D02*
X97949239Y-54573450D01*
X97949239Y-54573450D02*
X97938760Y-54572226D01*
X97938760Y-54572226D02*
X97925587Y-54570641D01*
X97925587Y-54570641D02*
X97909853Y-54568688D01*
X97909853Y-54568688D02*
X97891692Y-54566362D01*
X97891692Y-54566362D02*
X97871238Y-54563658D01*
X97871238Y-54563658D02*
X97848624Y-54560570D01*
X97848624Y-54560570D02*
X97823986Y-54557092D01*
X97823986Y-54557092D02*
X97797455Y-54553219D01*
X97797455Y-54553219D02*
X97769167Y-54548945D01*
X97769167Y-54548945D02*
X97739254Y-54544265D01*
X97739254Y-54544265D02*
X97707851Y-54539173D01*
X97707851Y-54539173D02*
X97675092Y-54533665D01*
X97675092Y-54533665D02*
X97641109Y-54527733D01*
X97641109Y-54527733D02*
X97606038Y-54521373D01*
X97606038Y-54521373D02*
X97570012Y-54514579D01*
X97570012Y-54514579D02*
X97533164Y-54507346D01*
X97533164Y-54507346D02*
X97495629Y-54499668D01*
X97495629Y-54499668D02*
X97457540Y-54491539D01*
X97457540Y-54491539D02*
X97419031Y-54482955D01*
X97419031Y-54482955D02*
X97380236Y-54473909D01*
X97380236Y-54473909D02*
X97336405Y-54462899D01*
X97336405Y-54462899D02*
X97294396Y-54451293D01*
X97294396Y-54451293D02*
X97254257Y-54439216D01*
X97254257Y-54439216D02*
X97216032Y-54426794D01*
X97216032Y-54426794D02*
X97179768Y-54414153D01*
X97179768Y-54414153D02*
X97145510Y-54401418D01*
X97145510Y-54401418D02*
X97113306Y-54388714D01*
X97113306Y-54388714D02*
X97083200Y-54376168D01*
X97083200Y-54376168D02*
X97055238Y-54363903D01*
X97055238Y-54363903D02*
X97029467Y-54352047D01*
X97029467Y-54352047D02*
X97005932Y-54340724D01*
X97005932Y-54340724D02*
X96984679Y-54330061D01*
X96984679Y-54330061D02*
X96965755Y-54320182D01*
X96965755Y-54320182D02*
X96949205Y-54311212D01*
X96949205Y-54311212D02*
X96935075Y-54303279D01*
X96935075Y-54303279D02*
X96923411Y-54296506D01*
X96923411Y-54296506D02*
X96914259Y-54291020D01*
X96914259Y-54291020D02*
X96907665Y-54286946D01*
X96907665Y-54286946D02*
X96903675Y-54284410D01*
X96903675Y-54284410D02*
X96902335Y-54283536D01*
X103728589Y-53394436D02*
X103727932Y-53394951D01*
X103727932Y-53394951D02*
X103725980Y-53396477D01*
X103725980Y-53396477D02*
X103722762Y-53398982D01*
X103722762Y-53398982D02*
X103718308Y-53402438D01*
X103718308Y-53402438D02*
X103712646Y-53406815D01*
X103712646Y-53406815D02*
X103705806Y-53412081D01*
X103705806Y-53412081D02*
X103697816Y-53418208D01*
X103697816Y-53418208D02*
X103688707Y-53425166D01*
X103688707Y-53425166D02*
X103678507Y-53432924D01*
X103678507Y-53432924D02*
X103667246Y-53441452D01*
X103667246Y-53441452D02*
X103654952Y-53450721D01*
X103654952Y-53450721D02*
X103641654Y-53460700D01*
X103641654Y-53460700D02*
X103627383Y-53471360D01*
X103627383Y-53471360D02*
X103612167Y-53482670D01*
X103612167Y-53482670D02*
X103596035Y-53494601D01*
X103596035Y-53494601D02*
X103579017Y-53507123D01*
X103579017Y-53507123D02*
X103561141Y-53520205D01*
X103561141Y-53520205D02*
X103542437Y-53533817D01*
X103542437Y-53533817D02*
X103522934Y-53547931D01*
X103522934Y-53547931D02*
X103502661Y-53562515D01*
X103502661Y-53562515D02*
X103481647Y-53577539D01*
X103481647Y-53577539D02*
X103459922Y-53592975D01*
X103459922Y-53592975D02*
X103437514Y-53608791D01*
X103437514Y-53608791D02*
X103414453Y-53624958D01*
X103414453Y-53624958D02*
X103390769Y-53641445D01*
X103390769Y-53641445D02*
X103366489Y-53658224D01*
X103366489Y-53658224D02*
X103341644Y-53675263D01*
X103341644Y-53675263D02*
X103316262Y-53692533D01*
X103316262Y-53692533D02*
X103290373Y-53710004D01*
X103290373Y-53710004D02*
X103264005Y-53727645D01*
X103264005Y-53727645D02*
X103237189Y-53745428D01*
X103237189Y-53745428D02*
X103209953Y-53763322D01*
X103209953Y-53763322D02*
X103182326Y-53781296D01*
X103182326Y-53781296D02*
X103154337Y-53799322D01*
X103154337Y-53799322D02*
X103126017Y-53817368D01*
X103126017Y-53817368D02*
X103097393Y-53835406D01*
X103097393Y-53835406D02*
X103068495Y-53853404D01*
X103068495Y-53853404D02*
X103039352Y-53871334D01*
X103039352Y-53871334D02*
X103009994Y-53889164D01*
X103009994Y-53889164D02*
X102980449Y-53906866D01*
X102980449Y-53906866D02*
X102950747Y-53924409D01*
X102950747Y-53924409D02*
X102920917Y-53941763D01*
X102920917Y-53941763D02*
X102890988Y-53958898D01*
X102890988Y-53958898D02*
X102860989Y-53975784D01*
X102860989Y-53975784D02*
X102830949Y-53992392D01*
X102830949Y-53992392D02*
X102800898Y-54008691D01*
X102800898Y-54008691D02*
X102770865Y-54024651D01*
X102770865Y-54024651D02*
X102740878Y-54040242D01*
X102740878Y-54040242D02*
X102710968Y-54055434D01*
X102710968Y-54055434D02*
X102681163Y-54070198D01*
X102681163Y-54070198D02*
X102651492Y-54084503D01*
X102651492Y-54084503D02*
X102621985Y-54098320D01*
X102621985Y-54098320D02*
X102592670Y-54111618D01*
X102592670Y-54111618D02*
X102563578Y-54124367D01*
X102563578Y-54124367D02*
X102534736Y-54136538D01*
X102534736Y-54136538D02*
X102506175Y-54148100D01*
X102506175Y-54148100D02*
X102477923Y-54159023D01*
X102477923Y-54159023D02*
X102450010Y-54169279D01*
X102450010Y-54169279D02*
X102422465Y-54178835D01*
X102422465Y-54178835D02*
X102398546Y-54186708D01*
X102398546Y-54186708D02*
X102374263Y-54194367D01*
X102374263Y-54194367D02*
X102349630Y-54201816D01*
X102349630Y-54201816D02*
X102324659Y-54209057D01*
X102324659Y-54209057D02*
X102299366Y-54216092D01*
X102299366Y-54216092D02*
X102273763Y-54222924D01*
X102273763Y-54222924D02*
X102247866Y-54229556D01*
X102247866Y-54229556D02*
X102221686Y-54235991D01*
X102221686Y-54235991D02*
X102195239Y-54242230D01*
X102195239Y-54242230D02*
X102168538Y-54248277D01*
X102168538Y-54248277D02*
X102141597Y-54254133D01*
X102141597Y-54254133D02*
X102114429Y-54259803D01*
X102114429Y-54259803D02*
X102087050Y-54265287D01*
X102087050Y-54265287D02*
X102059471Y-54270589D01*
X102059471Y-54270589D02*
X102031708Y-54275712D01*
X102031708Y-54275712D02*
X102003774Y-54280658D01*
X102003774Y-54280658D02*
X101975682Y-54285429D01*
X101975682Y-54285429D02*
X101947447Y-54290028D01*
X101947447Y-54290028D02*
X101919083Y-54294458D01*
X101919083Y-54294458D02*
X101890603Y-54298722D01*
X101890603Y-54298722D02*
X101862021Y-54302821D01*
X101862021Y-54302821D02*
X101833351Y-54306758D01*
X101833351Y-54306758D02*
X101804606Y-54310537D01*
X101804606Y-54310537D02*
X101775802Y-54314159D01*
X101775802Y-54314159D02*
X101746950Y-54317628D01*
X101746950Y-54317628D02*
X101718066Y-54320945D01*
X101718066Y-54320945D02*
X101689163Y-54324114D01*
X101689163Y-54324114D02*
X101660254Y-54327136D01*
X101660254Y-54327136D02*
X101631354Y-54330015D01*
X101631354Y-54330015D02*
X101602477Y-54332753D01*
X101602477Y-54332753D02*
X101573636Y-54335353D01*
X101573636Y-54335353D02*
X101544845Y-54337817D01*
X101544845Y-54337817D02*
X101516117Y-54340149D01*
X101516117Y-54340149D02*
X101487468Y-54342349D01*
X101487468Y-54342349D02*
X101458910Y-54344422D01*
X101458910Y-54344422D02*
X101430457Y-54346369D01*
X101430457Y-54346369D02*
X101402124Y-54348193D01*
X101402124Y-54348193D02*
X101373924Y-54349897D01*
X101373924Y-54349897D02*
X101345870Y-54351484D01*
X101345870Y-54351484D02*
X101317977Y-54352955D01*
X101317977Y-54352955D02*
X101290258Y-54354314D01*
X101290258Y-54354314D02*
X101262728Y-54355563D01*
X101262728Y-54355563D02*
X101235400Y-54356705D01*
X101235400Y-54356705D02*
X101208287Y-54357742D01*
X101208287Y-54357742D02*
X101181405Y-54358677D01*
X101181405Y-54358677D02*
X101154766Y-54359512D01*
X101154766Y-54359512D02*
X101128384Y-54360250D01*
X101128384Y-54360250D02*
X101102273Y-54360894D01*
X101102273Y-54360894D02*
X101076447Y-54361446D01*
X101076447Y-54361446D02*
X101050921Y-54361909D01*
X101050921Y-54361909D02*
X101025706Y-54362285D01*
X101025706Y-54362285D02*
X101000818Y-54362578D01*
X101000818Y-54362578D02*
X100976271Y-54362788D01*
X100976271Y-54362788D02*
X100952077Y-54362920D01*
X100952077Y-54362920D02*
X100928252Y-54362976D01*
X100928252Y-54362976D02*
X100904808Y-54362957D01*
X100904808Y-54362957D02*
X100881759Y-54362868D01*
X100881759Y-54362868D02*
X100859120Y-54362710D01*
X100859120Y-54362710D02*
X100836904Y-54362486D01*
X100836904Y-54362486D02*
X100815125Y-54362199D01*
X100815125Y-54362199D02*
X100793797Y-54361851D01*
X100793797Y-54361851D02*
X100772933Y-54361445D01*
X100772933Y-54361445D02*
X100752548Y-54360983D01*
X100752548Y-54360983D02*
X100732655Y-54360468D01*
X100732655Y-54360468D02*
X100713268Y-54359902D01*
X100713268Y-54359902D02*
X100694401Y-54359289D01*
X100694401Y-54359289D02*
X100676067Y-54358630D01*
X100676067Y-54358630D02*
X100658282Y-54357928D01*
X100658282Y-54357928D02*
X100611427Y-54356163D01*
X100611427Y-54356163D02*
X100566123Y-54354775D01*
X100566123Y-54354775D02*
X100522403Y-54353740D01*
X100522403Y-54353740D02*
X100480295Y-54353031D01*
X100480295Y-54353031D02*
X100439831Y-54352622D01*
X100439831Y-54352622D02*
X100401041Y-54352487D01*
X100401041Y-54352487D02*
X100363957Y-54352599D01*
X100363957Y-54352599D02*
X100328609Y-54352934D01*
X100328609Y-54352934D02*
X100295027Y-54353465D01*
X100295027Y-54353465D02*
X100263243Y-54354165D01*
X100263243Y-54354165D02*
X100233286Y-54355009D01*
X100233286Y-54355009D02*
X100205189Y-54355971D01*
X100205189Y-54355971D02*
X100178981Y-54357024D01*
X100178981Y-54357024D02*
X100154693Y-54358142D01*
X100154693Y-54358142D02*
X100132356Y-54359301D01*
X100132356Y-54359301D02*
X100112000Y-54360472D01*
X100112000Y-54360472D02*
X100093657Y-54361631D01*
X100093657Y-54361631D02*
X100077357Y-54362751D01*
X100077357Y-54362751D02*
X100063131Y-54363807D01*
X100063131Y-54363807D02*
X100051009Y-54364771D01*
X100051009Y-54364771D02*
X100041022Y-54365619D01*
X100041022Y-54365619D02*
X100033201Y-54366323D01*
X100033201Y-54366323D02*
X100027576Y-54366859D01*
X100027576Y-54366859D02*
X100024179Y-54367199D01*
X100024179Y-54367199D02*
X100023040Y-54367318D01*
D13*
X103862598Y-54996663D02*
X103865029Y-54976100D01*
X103865029Y-54976100D02*
X103867412Y-54955272D01*
X103867412Y-54955272D02*
X103869710Y-54934208D01*
X103869710Y-54934208D02*
X103871882Y-54912937D01*
X103871882Y-54912937D02*
X103873889Y-54891489D01*
X103873889Y-54891489D02*
X103875694Y-54869891D01*
X103875694Y-54869891D02*
X103877255Y-54848173D01*
X103877255Y-54848173D02*
X103878535Y-54826365D01*
X103878535Y-54826365D02*
X103879494Y-54804494D01*
X103879494Y-54804494D02*
X103880094Y-54782590D01*
X103880094Y-54782590D02*
X103880294Y-54760682D01*
X103880294Y-54760682D02*
X103880056Y-54738798D01*
X103880056Y-54738798D02*
X103879342Y-54716969D01*
X103879342Y-54716969D02*
X103878110Y-54695221D01*
X103878110Y-54695221D02*
X103876324Y-54673586D01*
X103876324Y-54673586D02*
X103873943Y-54652090D01*
X103873943Y-54652090D02*
X103870928Y-54630765D01*
X103870928Y-54630765D02*
X103867241Y-54609637D01*
X103867241Y-54609637D02*
X103862842Y-54588737D01*
X103862842Y-54588737D02*
X103857692Y-54568093D01*
X103857692Y-54568093D02*
X103851752Y-54547735D01*
X103851752Y-54547735D02*
X103844983Y-54527690D01*
X103844983Y-54527690D02*
X103837346Y-54507989D01*
X103837346Y-54507989D02*
X103828802Y-54488659D01*
X103828802Y-54488659D02*
X103819311Y-54469731D01*
X103819311Y-54469731D02*
X103808835Y-54451232D01*
X103808835Y-54451232D02*
X103797334Y-54433193D01*
X103797334Y-54433193D02*
X103784770Y-54415641D01*
X103784770Y-54415641D02*
X103771103Y-54398606D01*
X103771103Y-54398606D02*
X103756294Y-54382116D01*
X103756294Y-54382116D02*
X103740304Y-54366202D01*
X103740304Y-54366202D02*
X103723094Y-54350891D01*
X103723094Y-54350891D02*
X103704625Y-54336212D01*
X103704625Y-54336212D02*
X103684858Y-54322195D01*
X103684858Y-54322195D02*
X103663753Y-54308868D01*
X103663753Y-54308868D02*
X103641272Y-54296260D01*
X103641272Y-54296260D02*
X103617375Y-54284401D01*
X103617375Y-54284401D02*
X103592024Y-54273319D01*
X103592024Y-54273319D02*
X103565179Y-54263044D01*
X103565179Y-54263044D02*
X103536801Y-54253603D01*
X103536801Y-54253603D02*
X103506851Y-54245027D01*
X103506851Y-54245027D02*
X103481751Y-54239048D01*
X103481751Y-54239048D02*
X103456885Y-54234429D01*
X103456885Y-54234429D02*
X103432263Y-54231134D01*
X103432263Y-54231134D02*
X103407894Y-54229127D01*
X103407894Y-54229127D02*
X103383788Y-54228372D01*
X103383788Y-54228372D02*
X103359954Y-54228834D01*
X103359954Y-54228834D02*
X103336401Y-54230476D01*
X103336401Y-54230476D02*
X103313140Y-54233263D01*
X103313140Y-54233263D02*
X103290178Y-54237159D01*
X103290178Y-54237159D02*
X103267526Y-54242128D01*
X103267526Y-54242128D02*
X103245193Y-54248135D01*
X103245193Y-54248135D02*
X103223188Y-54255143D01*
X103223188Y-54255143D02*
X103201522Y-54263116D01*
X103201522Y-54263116D02*
X103180202Y-54272019D01*
X103180202Y-54272019D02*
X103159240Y-54281816D01*
X103159240Y-54281816D02*
X103138643Y-54292472D01*
X103138643Y-54292472D02*
X103118422Y-54303949D01*
X103118422Y-54303949D02*
X103098586Y-54316213D01*
X103098586Y-54316213D02*
X103079144Y-54329227D01*
X103079144Y-54329227D02*
X103060106Y-54342957D01*
X103060106Y-54342957D02*
X103041481Y-54357365D01*
X103041481Y-54357365D02*
X103023279Y-54372416D01*
X103023279Y-54372416D02*
X103005508Y-54388074D01*
X103005508Y-54388074D02*
X102988179Y-54404304D01*
X102988179Y-54404304D02*
X102971301Y-54421070D01*
X102971301Y-54421070D02*
X102954883Y-54438335D01*
X102954883Y-54438335D02*
X102938935Y-54456064D01*
X102938935Y-54456064D02*
X102923465Y-54474221D01*
X102923465Y-54474221D02*
X102908484Y-54492771D01*
X102908484Y-54492771D02*
X102894001Y-54511677D01*
X102894001Y-54511677D02*
X102880025Y-54530903D01*
X102880025Y-54530903D02*
X102866566Y-54550415D01*
X102866566Y-54550415D02*
X102853633Y-54570175D01*
X102853633Y-54570175D02*
X102841235Y-54590148D01*
X102841235Y-54590148D02*
X102829383Y-54610298D01*
X102829383Y-54610298D02*
X102818084Y-54630590D01*
X102818084Y-54630590D02*
X102807349Y-54650988D01*
X102807349Y-54650988D02*
X102797188Y-54671455D01*
X102797188Y-54671455D02*
X102787609Y-54691956D01*
X102787609Y-54691956D02*
X102778621Y-54712455D01*
X102778621Y-54712455D02*
X102770236Y-54732916D01*
X102770236Y-54732916D02*
X102762461Y-54753304D01*
X102762461Y-54753304D02*
X102755306Y-54773582D01*
X102755306Y-54773582D02*
X102748780Y-54793716D01*
X102748780Y-54793716D02*
X102742894Y-54813668D01*
X102742894Y-54813668D02*
X102737656Y-54833403D01*
X102737656Y-54833403D02*
X102733076Y-54852885D01*
X102733076Y-54852885D02*
X102729163Y-54872079D01*
X102729163Y-54872079D02*
X102725927Y-54890948D01*
X102725927Y-54890948D02*
X102723376Y-54909457D01*
X102723376Y-54909457D02*
X102720879Y-54934221D01*
X102720879Y-54934221D02*
X102719333Y-54958986D01*
X102719333Y-54958986D02*
X102718727Y-54983714D01*
X102718727Y-54983714D02*
X102719048Y-55008370D01*
X102719048Y-55008370D02*
X102720284Y-55032919D01*
X102720284Y-55032919D02*
X102722420Y-55057325D01*
X102722420Y-55057325D02*
X102725446Y-55081552D01*
X102725446Y-55081552D02*
X102729347Y-55105564D01*
X102729347Y-55105564D02*
X102734112Y-55129325D01*
X102734112Y-55129325D02*
X102739727Y-55152800D01*
X102739727Y-55152800D02*
X102746180Y-55175952D01*
X102746180Y-55175952D02*
X102753458Y-55198747D01*
X102753458Y-55198747D02*
X102761549Y-55221147D01*
X102761549Y-55221147D02*
X102770439Y-55243119D01*
X102770439Y-55243119D02*
X102780116Y-55264624D01*
X102780116Y-55264624D02*
X102790567Y-55285629D01*
X102790567Y-55285629D02*
X102801780Y-55306097D01*
X102801780Y-55306097D02*
X102813741Y-55325992D01*
X102813741Y-55325992D02*
X102826439Y-55345278D01*
X102826439Y-55345278D02*
X102839859Y-55363920D01*
X102839859Y-55363920D02*
X102853990Y-55381882D01*
X102853990Y-55381882D02*
X102868819Y-55399129D01*
X102868819Y-55399129D02*
X102884333Y-55415623D01*
X102884333Y-55415623D02*
X102900519Y-55431331D01*
X102900519Y-55431331D02*
X102917365Y-55446215D01*
X102917365Y-55446215D02*
X102934858Y-55460240D01*
X102934858Y-55460240D02*
X102952985Y-55473370D01*
X102952985Y-55473370D02*
X102971733Y-55485569D01*
X102971733Y-55485569D02*
X102991090Y-55496803D01*
X102991090Y-55496803D02*
X103011043Y-55507034D01*
X103011043Y-55507034D02*
X103031579Y-55516227D01*
X103031579Y-55516227D02*
X103052685Y-55524347D01*
X103052685Y-55524347D02*
X103074350Y-55531357D01*
X103074350Y-55531357D02*
X103096559Y-55537222D01*
X103096559Y-55537222D02*
X103119301Y-55541906D01*
X103119301Y-55541906D02*
X103142562Y-55545372D01*
X103142562Y-55545372D02*
X103166330Y-55547587D01*
X103166330Y-55547587D02*
X103188672Y-55548467D01*
X103188672Y-55548467D02*
X103211240Y-55548213D01*
X103211240Y-55548213D02*
X103233997Y-55546853D01*
X103233997Y-55546853D02*
X103256904Y-55544420D01*
X103256904Y-55544420D02*
X103279925Y-55540942D01*
X103279925Y-55540942D02*
X103303020Y-55536451D01*
X103303020Y-55536451D02*
X103326153Y-55530976D01*
X103326153Y-55530976D02*
X103349285Y-55524548D01*
X103349285Y-55524548D02*
X103372378Y-55517197D01*
X103372378Y-55517197D02*
X103395395Y-55508953D01*
X103395395Y-55508953D02*
X103418298Y-55499846D01*
X103418298Y-55499846D02*
X103441049Y-55489908D01*
X103441049Y-55489908D02*
X103463609Y-55479168D01*
X103463609Y-55479168D02*
X103485942Y-55467655D01*
X103485942Y-55467655D02*
X103508009Y-55455402D01*
X103508009Y-55455402D02*
X103529772Y-55442437D01*
X103529772Y-55442437D02*
X103551194Y-55428792D01*
X103551194Y-55428792D02*
X103572237Y-55414496D01*
X103572237Y-55414496D02*
X103592863Y-55399580D01*
X103592863Y-55399580D02*
X103613034Y-55384074D01*
X103613034Y-55384074D02*
X103632711Y-55368008D01*
X103632711Y-55368008D02*
X103651858Y-55351412D01*
X103651858Y-55351412D02*
X103670437Y-55334318D01*
X103670437Y-55334318D02*
X103688409Y-55316754D01*
X103688409Y-55316754D02*
X103705737Y-55298752D01*
X103705737Y-55298752D02*
X103722383Y-55280341D01*
X103722383Y-55280341D02*
X103738308Y-55261553D01*
X103738308Y-55261553D02*
X103753476Y-55242416D01*
X103753476Y-55242416D02*
X103767848Y-55222962D01*
X103767848Y-55222962D02*
X103781387Y-55203220D01*
X103781387Y-55203220D02*
X103794054Y-55183222D01*
X103794054Y-55183222D02*
X103805812Y-55162997D01*
X103805812Y-55162997D02*
X103816623Y-55142575D01*
X103816623Y-55142575D02*
X103826448Y-55121987D01*
X103826448Y-55121987D02*
X103835251Y-55101263D01*
X103835251Y-55101263D02*
X103842993Y-55080433D01*
X103842993Y-55080433D02*
X103849637Y-55059528D01*
X103849637Y-55059528D02*
X103855144Y-55038578D01*
X103855144Y-55038578D02*
X103859477Y-55017613D01*
X103859477Y-55017613D02*
X103862598Y-54996663D01*
D12*
X96957105Y-54664764D02*
X96956567Y-54666016D01*
X96956567Y-54666016D02*
X96955019Y-54669708D01*
X96955019Y-54669708D02*
X96952562Y-54675745D01*
X96952562Y-54675745D02*
X96949298Y-54684030D01*
X96949298Y-54684030D02*
X96945328Y-54694467D01*
X96945328Y-54694467D02*
X96940753Y-54706962D01*
X96940753Y-54706962D02*
X96935674Y-54721419D01*
X96935674Y-54721419D02*
X96930192Y-54737741D01*
X96930192Y-54737741D02*
X96924409Y-54755833D01*
X96924409Y-54755833D02*
X96918425Y-54775599D01*
X96918425Y-54775599D02*
X96912342Y-54796943D01*
X96912342Y-54796943D02*
X96906261Y-54819770D01*
X96906261Y-54819770D02*
X96900283Y-54843985D01*
X96900283Y-54843985D02*
X96894509Y-54869490D01*
X96894509Y-54869490D02*
X96889040Y-54896191D01*
X96889040Y-54896191D02*
X96883978Y-54923992D01*
X96883978Y-54923992D02*
X96879423Y-54952796D01*
X96879423Y-54952796D02*
X96875477Y-54982509D01*
X96875477Y-54982509D02*
X96872241Y-55013035D01*
X96872241Y-55013035D02*
X96869816Y-55044277D01*
X96869816Y-55044277D02*
X96868303Y-55076141D01*
X96868303Y-55076141D02*
X96867803Y-55108530D01*
X96867803Y-55108530D02*
X96868418Y-55141348D01*
X96868418Y-55141348D02*
X96870249Y-55174501D01*
X96870249Y-55174501D02*
X96873396Y-55207891D01*
X96873396Y-55207891D02*
X96877961Y-55241424D01*
X96877961Y-55241424D02*
X96884045Y-55275004D01*
X96884045Y-55275004D02*
X96891749Y-55308534D01*
X96891749Y-55308534D02*
X96901175Y-55341920D01*
X96901175Y-55341920D02*
X96912423Y-55375065D01*
X96912423Y-55375065D02*
X96925595Y-55407874D01*
X96925595Y-55407874D02*
X96942629Y-55444173D01*
X96942629Y-55444173D02*
X96961088Y-55478234D01*
X96961088Y-55478234D02*
X96980811Y-55510128D01*
X96980811Y-55510128D02*
X97001636Y-55539920D01*
X97001636Y-55539920D02*
X97023400Y-55567679D01*
X97023400Y-55567679D02*
X97045941Y-55593474D01*
X97045941Y-55593474D02*
X97069096Y-55617371D01*
X97069096Y-55617371D02*
X97092704Y-55639440D01*
X97092704Y-55639440D02*
X97116603Y-55659749D01*
X97116603Y-55659749D02*
X97140628Y-55678364D01*
X97140628Y-55678364D02*
X97164620Y-55695355D01*
X97164620Y-55695355D02*
X97188415Y-55710789D01*
X97188415Y-55710789D02*
X97211850Y-55724735D01*
X97211850Y-55724735D02*
X97234765Y-55737260D01*
X97234765Y-55737260D02*
X97256995Y-55748432D01*
X97256995Y-55748432D02*
X97278380Y-55758319D01*
X97278380Y-55758319D02*
X97298757Y-55766990D01*
X97298757Y-55766990D02*
X97317963Y-55774512D01*
X97317963Y-55774512D02*
X97335837Y-55780954D01*
X97335837Y-55780954D02*
X97352215Y-55786383D01*
X97352215Y-55786383D02*
X97366937Y-55790868D01*
X97366937Y-55790868D02*
X97379838Y-55794476D01*
X97379838Y-55794476D02*
X97390758Y-55797275D01*
X97390758Y-55797275D02*
X97399534Y-55799334D01*
X97399534Y-55799334D02*
X97406003Y-55800721D01*
X97406003Y-55800721D02*
X97410004Y-55801503D01*
X97410004Y-55801503D02*
X97411373Y-55801748D01*
D14*
%TO.C,SW1*%
X98310000Y-77200000D02*
X101110000Y-77200000D01*
X101110000Y-77200000D02*
X101110000Y-75200000D01*
X101110000Y-75200000D02*
X98310000Y-75200000D01*
X98310000Y-75200000D02*
X98310000Y-77200000D01*
%TO.C,BT1*%
D10*
X101536452Y-70429428D02*
X100774547Y-70429428D01*
X101155500Y-70810380D02*
X101155500Y-70048476D01*
X121475452Y-70238928D02*
X120713547Y-70238928D01*
%TD*%
M02*
