%TF.GenerationSoftware,KiCad,Pcbnew,5.1.6-c6e7f7d~87~ubuntu19.10.1*%
%TF.CreationDate,2021-11-12T23:14:50-08:00*%
%TF.ProjectId,crobagotchi,63726f62-6167-46f7-9463-68692e6b6963,rev?*%
%TF.SameCoordinates,Original*%
%TF.FileFunction,Soldermask,Top*%
%TF.FilePolarity,Negative*%
%FSLAX46Y46*%
G04 Gerber Fmt 4.6, Leading zero omitted, Abs format (unit mm)*
G04 Created by KiCad (PCBNEW 5.1.6-c6e7f7d~87~ubuntu19.10.1) date 2021-11-12 23:14:50*
%MOMM*%
%LPD*%
G01*
G04 APERTURE LIST*
%ADD10C,2.200000*%
%ADD11R,2.200000X2.200000*%
%ADD12O,1.700000X2.100000*%
%ADD13C,2.100000*%
%ADD14O,1.800000X1.800000*%
%ADD15R,1.800000X1.800000*%
%ADD16R,1.800000X0.750000*%
G04 APERTURE END LIST*
D10*
%TO.C,BT1*%
X121092000Y-68326000D03*
D11*
X101092000Y-68326000D03*
%TD*%
D12*
%TO.C,Brd1*%
X110426000Y-51884000D03*
X107886000Y-51884000D03*
X112966000Y-51884000D03*
X115506000Y-51884000D03*
%TD*%
D13*
%TO.C,SW3*%
X122070000Y-94488000D03*
X122070000Y-98988000D03*
X115570000Y-94488000D03*
X115570000Y-98988000D03*
%TD*%
%TO.C,SW2*%
X101473000Y-98988000D03*
X101473000Y-94488000D03*
X107973000Y-98988000D03*
X107973000Y-94488000D03*
%TD*%
%TO.C,R3*%
G36*
G01*
X124609456Y-80772500D02*
X123294544Y-80772500D01*
G75*
G02*
X123027000Y-80504956I0J267544D01*
G01*
X123027000Y-79515044D01*
G75*
G02*
X123294544Y-79247500I267544J0D01*
G01*
X124609456Y-79247500D01*
G75*
G02*
X124877000Y-79515044I0J-267544D01*
G01*
X124877000Y-80504956D01*
G75*
G02*
X124609456Y-80772500I-267544J0D01*
G01*
G37*
G36*
G01*
X124609456Y-83747500D02*
X123294544Y-83747500D01*
G75*
G02*
X123027000Y-83479956I0J267544D01*
G01*
X123027000Y-82490044D01*
G75*
G02*
X123294544Y-82222500I267544J0D01*
G01*
X124609456Y-82222500D01*
G75*
G02*
X124877000Y-82490044I0J-267544D01*
G01*
X124877000Y-83479956D01*
G75*
G02*
X124609456Y-83747500I-267544J0D01*
G01*
G37*
%TD*%
%TO.C,R2*%
G36*
G01*
X123294544Y-88064500D02*
X124609456Y-88064500D01*
G75*
G02*
X124877000Y-88332044I0J-267544D01*
G01*
X124877000Y-89321956D01*
G75*
G02*
X124609456Y-89589500I-267544J0D01*
G01*
X123294544Y-89589500D01*
G75*
G02*
X123027000Y-89321956I0J267544D01*
G01*
X123027000Y-88332044D01*
G75*
G02*
X123294544Y-88064500I267544J0D01*
G01*
G37*
G36*
G01*
X123294544Y-85089500D02*
X124609456Y-85089500D01*
G75*
G02*
X124877000Y-85357044I0J-267544D01*
G01*
X124877000Y-86346956D01*
G75*
G02*
X124609456Y-86614500I-267544J0D01*
G01*
X123294544Y-86614500D01*
G75*
G02*
X123027000Y-86346956I0J267544D01*
G01*
X123027000Y-85357044D01*
G75*
G02*
X123294544Y-85089500I267544J0D01*
G01*
G37*
%TD*%
%TO.C,C1*%
G36*
G01*
X119738544Y-88101000D02*
X121053456Y-88101000D01*
G75*
G02*
X121321000Y-88368544I0J-267544D01*
G01*
X121321000Y-89358456D01*
G75*
G02*
X121053456Y-89626000I-267544J0D01*
G01*
X119738544Y-89626000D01*
G75*
G02*
X119471000Y-89358456I0J267544D01*
G01*
X119471000Y-88368544D01*
G75*
G02*
X119738544Y-88101000I267544J0D01*
G01*
G37*
G36*
G01*
X119738544Y-85126000D02*
X121053456Y-85126000D01*
G75*
G02*
X121321000Y-85393544I0J-267544D01*
G01*
X121321000Y-86383456D01*
G75*
G02*
X121053456Y-86651000I-267544J0D01*
G01*
X119738544Y-86651000D01*
G75*
G02*
X119471000Y-86383456I0J267544D01*
G01*
X119471000Y-85393544D01*
G75*
G02*
X119738544Y-85126000I267544J0D01*
G01*
G37*
%TD*%
D14*
%TO.C,J1*%
X102616000Y-86868000D03*
X100076000Y-86868000D03*
X102616000Y-84328000D03*
X100076000Y-84328000D03*
X102616000Y-81788000D03*
D15*
X100076000Y-81788000D03*
%TD*%
D16*
%TO.C,U1*%
X115410000Y-81280000D03*
X115410000Y-82550000D03*
X115410000Y-83820000D03*
X115410000Y-85090000D03*
X108110000Y-85090000D03*
X108110000Y-83820000D03*
X108110000Y-82550000D03*
X108110000Y-81280000D03*
%TD*%
%TO.C,R1*%
G36*
G01*
X121053456Y-80809000D02*
X119738544Y-80809000D01*
G75*
G02*
X119471000Y-80541456I0J267544D01*
G01*
X119471000Y-79551544D01*
G75*
G02*
X119738544Y-79284000I267544J0D01*
G01*
X121053456Y-79284000D01*
G75*
G02*
X121321000Y-79551544I0J-267544D01*
G01*
X121321000Y-80541456D01*
G75*
G02*
X121053456Y-80809000I-267544J0D01*
G01*
G37*
G36*
G01*
X121053456Y-83784000D02*
X119738544Y-83784000D01*
G75*
G02*
X119471000Y-83516456I0J267544D01*
G01*
X119471000Y-82526544D01*
G75*
G02*
X119738544Y-82259000I267544J0D01*
G01*
X121053456Y-82259000D01*
G75*
G02*
X121321000Y-82526544I0J-267544D01*
G01*
X121321000Y-83516456D01*
G75*
G02*
X121053456Y-83784000I-267544J0D01*
G01*
G37*
%TD*%
M02*
